<svg width="110" height="18" viewBox="0 0 110 18" fill="none" xmlns="http://www.w3.org/2000/svg">
<mask id="path-1-outside-1_1741_71752" maskUnits="userSpaceOnUse" x="-0.00012207" y="0.289032" width="60" height="17" fill="black">
<rect fill="white" x="-0.00012207" y="0.289032" width="60" height="17"/>
<path d="M6.67233 16.4396C6.05934 16.4396 5.44635 16.3908 4.83337 16.2933C4.22038 16.2097 3.64222 16.0773 3.09889 15.8962C2.55556 15.7012 2.06796 15.4644 1.63608 15.1857C1.38532 15.0185 1.21117 14.8165 1.11365 14.5797C1.01613 14.3429 0.981303 14.113 1.00917 13.8901C1.05096 13.6533 1.14152 13.4512 1.28083 13.2841C1.43408 13.103 1.62215 12.9915 1.84506 12.9497C2.06796 12.9079 2.31176 12.9706 2.57646 13.1378C3.18945 13.5 3.83726 13.7647 4.51991 13.9319C5.20255 14.0991 5.92003 14.1827 6.67233 14.1827C7.77292 14.1827 8.57398 14.0015 9.07551 13.6393C9.57705 13.2632 9.82782 12.7825 9.82782 12.1974C9.82782 11.7098 9.64671 11.3267 9.28449 11.0481C8.9362 10.7694 8.33018 10.5396 7.46642 10.3585L5.16772 9.87781C3.84423 9.59918 2.85509 9.13248 2.20031 8.4777C1.55946 7.80898 1.23904 6.9313 1.23904 5.84464C1.23904 5.16199 1.37835 4.54204 1.65698 3.98478C1.93561 3.42752 2.32569 2.94688 2.82723 2.54287C3.34269 2.13885 3.94872 1.83236 4.64529 1.62339C5.3558 1.40048 6.13596 1.28903 6.98579 1.28903C7.82168 1.28903 8.61577 1.39352 9.36808 1.60249C10.1204 1.81146 10.7961 2.11796 11.3951 2.52197C11.618 2.67522 11.7643 2.86329 11.834 3.0862C11.9175 3.3091 11.9384 3.53201 11.8966 3.75491C11.8549 3.96388 11.7573 4.14499 11.6041 4.29824C11.4508 4.45149 11.2558 4.54204 11.019 4.5699C10.7961 4.59777 10.5383 4.52811 10.2458 4.36093C9.7303 4.06837 9.20786 3.8594 8.67847 3.73401C8.14907 3.60863 7.57788 3.54594 6.96489 3.54594C6.32404 3.54594 5.77375 3.63649 5.31401 3.8176C4.85426 3.99871 4.49901 4.25645 4.24824 4.5908C4.01141 4.91123 3.89299 5.29434 3.89299 5.74015C3.89299 6.24169 4.06017 6.6457 4.39452 6.95219C4.72888 7.24476 5.30007 7.47463 6.1081 7.6418L8.3859 8.12244C9.76513 8.415 10.7891 8.87474 11.4578 9.50166C12.1404 10.1286 12.4818 10.9645 12.4818 12.0093C12.4818 12.678 12.3425 13.2841 12.0638 13.8274C11.7991 14.3707 11.409 14.8374 10.8936 15.2275C10.392 15.6176 9.78602 15.9171 9.07551 16.1261C8.36501 16.3351 7.56394 16.4396 6.67233 16.4396Z"/>
<path d="M17.8912 16.4396C17.1529 16.4396 16.4911 16.3002 15.906 16.0216C15.3348 15.7291 14.882 15.339 14.5477 14.8514C14.2272 14.3638 14.067 13.8135 14.067 13.2005C14.067 12.4482 14.2621 11.8561 14.6521 11.4242C15.0422 10.9784 15.6761 10.658 16.5538 10.4629C17.4315 10.2679 18.6087 10.1704 20.0854 10.1704H21.1303V11.675H20.1063C19.2426 11.675 18.553 11.7168 18.0375 11.8004C17.522 11.884 17.1529 12.0302 16.93 12.2392C16.721 12.4342 16.6165 12.7129 16.6165 13.0751C16.6165 13.5348 16.7767 13.911 17.0971 14.2036C17.4176 14.4961 17.8634 14.6424 18.4346 14.6424C18.8943 14.6424 19.2983 14.5379 19.6466 14.3289C20.0088 14.106 20.2944 13.8065 20.5034 13.4304C20.7124 13.0542 20.8168 12.6223 20.8168 12.1347V9.73153C20.8168 9.03496 20.6636 8.53342 20.3571 8.22693C20.0506 7.92043 19.5351 7.76719 18.8107 7.76719C18.4067 7.76719 17.9678 7.81595 17.4942 7.91347C17.0344 8.01099 16.5468 8.17817 16.0314 8.415C15.7667 8.54039 15.5298 8.57522 15.3209 8.51949C15.1258 8.46376 14.9726 8.35231 14.8611 8.18513C14.7497 8.00402 14.6939 7.80898 14.6939 7.60001C14.6939 7.39104 14.7497 7.18903 14.8611 6.99399C14.9726 6.78502 15.1606 6.63177 15.4253 6.53425C16.0662 6.26955 16.6792 6.08147 17.2643 5.97002C17.8634 5.85857 18.4067 5.80284 18.8943 5.80284C19.8974 5.80284 20.7193 5.95609 21.3602 6.26258C22.015 6.56908 22.5026 7.03578 22.823 7.6627C23.1434 8.27569 23.3036 9.06979 23.3036 10.045V15.0603C23.3036 15.4922 23.1991 15.8266 22.9902 16.0634C22.7812 16.2863 22.4817 16.3978 22.0916 16.3978C21.7015 16.3978 21.395 16.2863 21.1721 16.0634C20.9631 15.8266 20.8586 15.4922 20.8586 15.0603V14.0573H21.0258C20.9283 14.5449 20.7333 14.9698 20.4407 15.332C20.1621 15.6803 19.8068 15.952 19.3749 16.147C18.9431 16.342 18.4485 16.4396 17.8912 16.4396Z"/>
<path d="M29.6538 16.4396C28.804 16.4396 28.1004 16.2863 27.5432 15.9798C26.9859 15.6594 26.5679 15.1857 26.2893 14.5588C26.0246 13.9319 25.8923 13.1517 25.8923 12.2183V7.16117C25.8923 6.71536 26.0037 6.38797 26.2266 6.17899C26.4495 5.95609 26.77 5.84464 27.1879 5.84464C27.6058 5.84464 27.9263 5.95609 28.1492 6.17899C28.386 6.38797 28.5044 6.71536 28.5044 7.16117V12.2601C28.5044 12.9845 28.6507 13.5209 28.9433 13.8692C29.2358 14.2175 29.7025 14.3916 30.3434 14.3916C31.04 14.3916 31.6112 14.1548 32.057 13.6811C32.5028 13.1935 32.7257 12.5527 32.7257 11.7586V7.16117C32.7257 6.71536 32.8371 6.38797 33.06 6.17899C33.2829 5.95609 33.6034 5.84464 34.0213 5.84464C34.4393 5.84464 34.7597 5.95609 34.9826 6.17899C35.2194 6.38797 35.3378 6.71536 35.3378 7.16117V15.0603C35.3378 15.952 34.9129 16.3978 34.0631 16.3978C33.6591 16.3978 33.3456 16.2863 33.1227 16.0634C32.8998 15.8266 32.7884 15.4922 32.7884 15.0603V13.4721L33.0809 14.0991C32.7884 14.8514 32.3426 15.4295 31.7435 15.8335C31.1584 16.2376 30.4618 16.4396 29.6538 16.4396Z"/>
<path d="M41.9853 16.4396C41.0937 16.4396 40.3065 16.2236 39.6239 15.7917C38.9552 15.3599 38.4328 14.7469 38.0566 13.9528C37.6805 13.1448 37.4924 12.1974 37.4924 11.1108C37.4924 10.0102 37.6805 9.06979 38.0566 8.28962C38.4328 7.49552 38.9552 6.88254 39.6239 6.45066C40.3065 6.01878 41.0937 5.80284 41.9853 5.80284C42.8351 5.80284 43.5735 6.01182 44.2004 6.42976C44.8413 6.84771 45.2731 7.398 45.496 8.08065H45.2662V2.64735C45.2662 2.21548 45.3776 1.88809 45.6005 1.66518C45.8234 1.44228 46.1439 1.33083 46.5618 1.33083C46.9797 1.33083 47.3002 1.44228 47.5231 1.66518C47.7599 1.88809 47.8783 2.21548 47.8783 2.64735V15.0603C47.8783 15.4922 47.7669 15.8266 47.544 16.0634C47.3211 16.2863 47.0006 16.3978 46.5827 16.3978C46.1647 16.3978 45.8443 16.2863 45.6214 16.0634C45.3985 15.8266 45.2871 15.4922 45.2871 15.0603V13.4304L45.5169 14.0573C45.308 14.7817 44.883 15.3599 44.2422 15.7917C43.6013 16.2236 42.849 16.4396 41.9853 16.4396ZM42.7167 14.4543C43.2322 14.4543 43.6849 14.3289 44.075 14.0782C44.4651 13.8274 44.7646 13.4582 44.9736 12.9706C45.1965 12.4691 45.308 11.8491 45.308 11.1108C45.308 9.99623 45.0711 9.16731 44.5975 8.62398C44.1238 8.06672 43.4969 7.78809 42.7167 7.78809C42.2012 7.78809 41.7485 7.91347 41.3584 8.16424C40.9683 8.40107 40.6618 8.77026 40.4389 9.27179C40.2299 9.7594 40.1254 10.3724 40.1254 11.1108C40.1254 12.2113 40.3623 13.0472 40.8359 13.6184C41.3096 14.1757 41.9365 14.4543 42.7167 14.4543Z"/>
<path d="M53.9513 16.4396C53.2129 16.4396 52.5512 16.3002 51.966 16.0216C51.3948 15.7291 50.9421 15.339 50.6077 14.8514C50.2873 14.3638 50.1271 13.8135 50.1271 13.2005C50.1271 12.4482 50.3221 11.8561 50.7122 11.4242C51.1023 10.9784 51.7362 10.658 52.6138 10.4629C53.4915 10.2679 54.6687 10.1704 56.1455 10.1704H57.1903V11.675H56.1664C55.3026 11.675 54.613 11.7168 54.0976 11.8004C53.5821 11.884 53.2129 12.0302 52.99 12.2392C52.781 12.4342 52.6765 12.7129 52.6765 13.0751C52.6765 13.5348 52.8368 13.911 53.1572 14.2036C53.4776 14.4961 53.9234 14.6424 54.4946 14.6424C54.9543 14.6424 55.3584 14.5379 55.7066 14.3289C56.0689 14.106 56.3545 13.8065 56.5634 13.4304C56.7724 13.0542 56.8769 12.6223 56.8769 12.1347V9.73153C56.8769 9.03496 56.7236 8.53342 56.4171 8.22693C56.1107 7.92043 55.5952 7.76719 54.8708 7.76719C54.4667 7.76719 54.0279 7.81595 53.5542 7.91347C53.0945 8.01099 52.6069 8.17817 52.0914 8.415C51.8267 8.54039 51.5899 8.57522 51.3809 8.51949C51.1859 8.46376 51.0326 8.35231 50.9212 8.18513C50.8097 8.00402 50.754 7.80898 50.754 7.60001C50.754 7.39104 50.8097 7.18903 50.9212 6.99399C51.0326 6.78502 51.2207 6.63177 51.4854 6.53425C52.1262 6.26955 52.7392 6.08147 53.3244 5.97002C53.9234 5.85857 54.4667 5.80284 54.9543 5.80284C55.9574 5.80284 56.7794 5.95609 57.4202 6.26258C58.075 6.56908 58.5626 7.03578 58.883 7.6627C59.2035 8.27569 59.3637 9.06979 59.3637 10.045V15.0603C59.3637 15.4922 59.2592 15.8266 59.0502 16.0634C58.8412 16.2863 58.5417 16.3978 58.1516 16.3978C57.7615 16.3978 57.455 16.2863 57.2321 16.0634C57.0232 15.8266 56.9187 15.4922 56.9187 15.0603V14.0573H57.0859C56.9883 14.5449 56.7933 14.9698 56.5007 15.332C56.2221 15.6803 55.8669 15.952 55.435 16.147C55.0031 16.342 54.5085 16.4396 53.9513 16.4396Z"/>
</mask>
<g filter="url(#filter0_i_1741_71752)">
<path d="M6.67233 16.4396C6.05934 16.4396 5.44635 16.3908 4.83337 16.2933C4.22038 16.2097 3.64222 16.0773 3.09889 15.8962C2.55556 15.7012 2.06796 15.4644 1.63608 15.1857C1.38532 15.0185 1.21117 14.8165 1.11365 14.5797C1.01613 14.3429 0.981303 14.113 1.00917 13.8901C1.05096 13.6533 1.14152 13.4512 1.28083 13.2841C1.43408 13.103 1.62215 12.9915 1.84506 12.9497C2.06796 12.9079 2.31176 12.9706 2.57646 13.1378C3.18945 13.5 3.83726 13.7647 4.51991 13.9319C5.20255 14.0991 5.92003 14.1827 6.67233 14.1827C7.77292 14.1827 8.57398 14.0015 9.07551 13.6393C9.57705 13.2632 9.82782 12.7825 9.82782 12.1974C9.82782 11.7098 9.64671 11.3267 9.28449 11.0481C8.9362 10.7694 8.33018 10.5396 7.46642 10.3585L5.16772 9.87781C3.84423 9.59918 2.85509 9.13248 2.20031 8.4777C1.55946 7.80898 1.23904 6.9313 1.23904 5.84464C1.23904 5.16199 1.37835 4.54204 1.65698 3.98478C1.93561 3.42752 2.32569 2.94688 2.82723 2.54287C3.34269 2.13885 3.94872 1.83236 4.64529 1.62339C5.3558 1.40048 6.13596 1.28903 6.98579 1.28903C7.82168 1.28903 8.61577 1.39352 9.36808 1.60249C10.1204 1.81146 10.7961 2.11796 11.3951 2.52197C11.618 2.67522 11.7643 2.86329 11.834 3.0862C11.9175 3.3091 11.9384 3.53201 11.8966 3.75491C11.8549 3.96388 11.7573 4.14499 11.6041 4.29824C11.4508 4.45149 11.2558 4.54204 11.019 4.5699C10.7961 4.59777 10.5383 4.52811 10.2458 4.36093C9.7303 4.06837 9.20786 3.8594 8.67847 3.73401C8.14907 3.60863 7.57788 3.54594 6.96489 3.54594C6.32404 3.54594 5.77375 3.63649 5.31401 3.8176C4.85426 3.99871 4.49901 4.25645 4.24824 4.5908C4.01141 4.91123 3.89299 5.29434 3.89299 5.74015C3.89299 6.24169 4.06017 6.6457 4.39452 6.95219C4.72888 7.24476 5.30007 7.47463 6.1081 7.6418L8.3859 8.12244C9.76513 8.415 10.7891 8.87474 11.4578 9.50166C12.1404 10.1286 12.4818 10.9645 12.4818 12.0093C12.4818 12.678 12.3425 13.2841 12.0638 13.8274C11.7991 14.3707 11.409 14.8374 10.8936 15.2275C10.392 15.6176 9.78602 15.9171 9.07551 16.1261C8.36501 16.3351 7.56394 16.4396 6.67233 16.4396Z" fill="#F6905C"/>
<path d="M17.8912 16.4396C17.1529 16.4396 16.4911 16.3002 15.906 16.0216C15.3348 15.7291 14.882 15.339 14.5477 14.8514C14.2272 14.3638 14.067 13.8135 14.067 13.2005C14.067 12.4482 14.2621 11.8561 14.6521 11.4242C15.0422 10.9784 15.6761 10.658 16.5538 10.4629C17.4315 10.2679 18.6087 10.1704 20.0854 10.1704H21.1303V11.675H20.1063C19.2426 11.675 18.553 11.7168 18.0375 11.8004C17.522 11.884 17.1529 12.0302 16.93 12.2392C16.721 12.4342 16.6165 12.7129 16.6165 13.0751C16.6165 13.5348 16.7767 13.911 17.0971 14.2036C17.4176 14.4961 17.8634 14.6424 18.4346 14.6424C18.8943 14.6424 19.2983 14.5379 19.6466 14.3289C20.0088 14.106 20.2944 13.8065 20.5034 13.4304C20.7124 13.0542 20.8168 12.6223 20.8168 12.1347V9.73153C20.8168 9.03496 20.6636 8.53342 20.3571 8.22693C20.0506 7.92043 19.5351 7.76719 18.8107 7.76719C18.4067 7.76719 17.9678 7.81595 17.4942 7.91347C17.0344 8.01099 16.5468 8.17817 16.0314 8.415C15.7667 8.54039 15.5298 8.57522 15.3209 8.51949C15.1258 8.46376 14.9726 8.35231 14.8611 8.18513C14.7497 8.00402 14.6939 7.80898 14.6939 7.60001C14.6939 7.39104 14.7497 7.18903 14.8611 6.99399C14.9726 6.78502 15.1606 6.63177 15.4253 6.53425C16.0662 6.26955 16.6792 6.08147 17.2643 5.97002C17.8634 5.85857 18.4067 5.80284 18.8943 5.80284C19.8974 5.80284 20.7193 5.95609 21.3602 6.26258C22.015 6.56908 22.5026 7.03578 22.823 7.6627C23.1434 8.27569 23.3036 9.06979 23.3036 10.045V15.0603C23.3036 15.4922 23.1991 15.8266 22.9902 16.0634C22.7812 16.2863 22.4817 16.3978 22.0916 16.3978C21.7015 16.3978 21.395 16.2863 21.1721 16.0634C20.9631 15.8266 20.8586 15.4922 20.8586 15.0603V14.0573H21.0258C20.9283 14.5449 20.7333 14.9698 20.4407 15.332C20.1621 15.6803 19.8068 15.952 19.3749 16.147C18.9431 16.342 18.4485 16.4396 17.8912 16.4396Z" fill="#F6905C"/>
<path d="M29.6538 16.4396C28.804 16.4396 28.1004 16.2863 27.5432 15.9798C26.9859 15.6594 26.5679 15.1857 26.2893 14.5588C26.0246 13.9319 25.8923 13.1517 25.8923 12.2183V7.16117C25.8923 6.71536 26.0037 6.38797 26.2266 6.17899C26.4495 5.95609 26.77 5.84464 27.1879 5.84464C27.6058 5.84464 27.9263 5.95609 28.1492 6.17899C28.386 6.38797 28.5044 6.71536 28.5044 7.16117V12.2601C28.5044 12.9845 28.6507 13.5209 28.9433 13.8692C29.2358 14.2175 29.7025 14.3916 30.3434 14.3916C31.04 14.3916 31.6112 14.1548 32.057 13.6811C32.5028 13.1935 32.7257 12.5527 32.7257 11.7586V7.16117C32.7257 6.71536 32.8371 6.38797 33.06 6.17899C33.2829 5.95609 33.6034 5.84464 34.0213 5.84464C34.4393 5.84464 34.7597 5.95609 34.9826 6.17899C35.2194 6.38797 35.3378 6.71536 35.3378 7.16117V15.0603C35.3378 15.952 34.9129 16.3978 34.0631 16.3978C33.6591 16.3978 33.3456 16.2863 33.1227 16.0634C32.8998 15.8266 32.7884 15.4922 32.7884 15.0603V13.4721L33.0809 14.0991C32.7884 14.8514 32.3426 15.4295 31.7435 15.8335C31.1584 16.2376 30.4618 16.4396 29.6538 16.4396Z" fill="#F6905C"/>
<path d="M41.9853 16.4396C41.0937 16.4396 40.3065 16.2236 39.6239 15.7917C38.9552 15.3599 38.4328 14.7469 38.0566 13.9528C37.6805 13.1448 37.4924 12.1974 37.4924 11.1108C37.4924 10.0102 37.6805 9.06979 38.0566 8.28962C38.4328 7.49552 38.9552 6.88254 39.6239 6.45066C40.3065 6.01878 41.0937 5.80284 41.9853 5.80284C42.8351 5.80284 43.5735 6.01182 44.2004 6.42976C44.8413 6.84771 45.2731 7.398 45.496 8.08065H45.2662V2.64735C45.2662 2.21548 45.3776 1.88809 45.6005 1.66518C45.8234 1.44228 46.1439 1.33083 46.5618 1.33083C46.9797 1.33083 47.3002 1.44228 47.5231 1.66518C47.7599 1.88809 47.8783 2.21548 47.8783 2.64735V15.0603C47.8783 15.4922 47.7669 15.8266 47.544 16.0634C47.3211 16.2863 47.0006 16.3978 46.5827 16.3978C46.1647 16.3978 45.8443 16.2863 45.6214 16.0634C45.3985 15.8266 45.2871 15.4922 45.2871 15.0603V13.4304L45.5169 14.0573C45.308 14.7817 44.883 15.3599 44.2422 15.7917C43.6013 16.2236 42.849 16.4396 41.9853 16.4396ZM42.7167 14.4543C43.2322 14.4543 43.6849 14.3289 44.075 14.0782C44.4651 13.8274 44.7646 13.4582 44.9736 12.9706C45.1965 12.4691 45.308 11.8491 45.308 11.1108C45.308 9.99623 45.0711 9.16731 44.5975 8.62398C44.1238 8.06672 43.4969 7.78809 42.7167 7.78809C42.2012 7.78809 41.7485 7.91347 41.3584 8.16424C40.9683 8.40107 40.6618 8.77026 40.4389 9.27179C40.2299 9.7594 40.1254 10.3724 40.1254 11.1108C40.1254 12.2113 40.3623 13.0472 40.8359 13.6184C41.3096 14.1757 41.9365 14.4543 42.7167 14.4543Z" fill="#F6905C"/>
<path d="M53.9513 16.4396C53.2129 16.4396 52.5512 16.3002 51.966 16.0216C51.3948 15.7291 50.9421 15.339 50.6077 14.8514C50.2873 14.3638 50.1271 13.8135 50.1271 13.2005C50.1271 12.4482 50.3221 11.8561 50.7122 11.4242C51.1023 10.9784 51.7362 10.658 52.6138 10.4629C53.4915 10.2679 54.6687 10.1704 56.1455 10.1704H57.1903V11.675H56.1664C55.3026 11.675 54.613 11.7168 54.0976 11.8004C53.5821 11.884 53.2129 12.0302 52.99 12.2392C52.781 12.4342 52.6765 12.7129 52.6765 13.0751C52.6765 13.5348 52.8368 13.911 53.1572 14.2036C53.4776 14.4961 53.9234 14.6424 54.4946 14.6424C54.9543 14.6424 55.3584 14.5379 55.7066 14.3289C56.0689 14.106 56.3545 13.8065 56.5634 13.4304C56.7724 13.0542 56.8769 12.6223 56.8769 12.1347V9.73153C56.8769 9.03496 56.7236 8.53342 56.4171 8.22693C56.1107 7.92043 55.5952 7.76719 54.8708 7.76719C54.4667 7.76719 54.0279 7.81595 53.5542 7.91347C53.0945 8.01099 52.6069 8.17817 52.0914 8.415C51.8267 8.54039 51.5899 8.57522 51.3809 8.51949C51.1859 8.46376 51.0326 8.35231 50.9212 8.18513C50.8097 8.00402 50.754 7.80898 50.754 7.60001C50.754 7.39104 50.8097 7.18903 50.9212 6.99399C51.0326 6.78502 51.2207 6.63177 51.4854 6.53425C52.1262 6.26955 52.7392 6.08147 53.3244 5.97002C53.9234 5.85857 54.4667 5.80284 54.9543 5.80284C55.9574 5.80284 56.7794 5.95609 57.4202 6.26258C58.075 6.56908 58.5626 7.03578 58.883 7.6627C59.2035 8.27569 59.3637 9.06979 59.3637 10.045V15.0603C59.3637 15.4922 59.2592 15.8266 59.0502 16.0634C58.8412 16.2863 58.5417 16.3978 58.1516 16.3978C57.7615 16.3978 57.455 16.2863 57.2321 16.0634C57.0232 15.8266 56.9187 15.4922 56.9187 15.0603V14.0573H57.0859C56.9883 14.5449 56.7933 14.9698 56.5007 15.332C56.2221 15.6803 55.8669 15.952 55.435 16.147C55.0031 16.342 54.5085 16.4396 53.9513 16.4396Z" fill="#F6905C"/>
</g>
<path d="M6.67233 16.4396C6.05934 16.4396 5.44635 16.3908 4.83337 16.2933C4.22038 16.2097 3.64222 16.0773 3.09889 15.8962C2.55556 15.7012 2.06796 15.4644 1.63608 15.1857C1.38532 15.0185 1.21117 14.8165 1.11365 14.5797C1.01613 14.3429 0.981303 14.113 1.00917 13.8901C1.05096 13.6533 1.14152 13.4512 1.28083 13.2841C1.43408 13.103 1.62215 12.9915 1.84506 12.9497C2.06796 12.9079 2.31176 12.9706 2.57646 13.1378C3.18945 13.5 3.83726 13.7647 4.51991 13.9319C5.20255 14.0991 5.92003 14.1827 6.67233 14.1827C7.77292 14.1827 8.57398 14.0015 9.07551 13.6393C9.57705 13.2632 9.82782 12.7825 9.82782 12.1974C9.82782 11.7098 9.64671 11.3267 9.28449 11.0481C8.9362 10.7694 8.33018 10.5396 7.46642 10.3585L5.16772 9.87781C3.84423 9.59918 2.85509 9.13248 2.20031 8.4777C1.55946 7.80898 1.23904 6.9313 1.23904 5.84464C1.23904 5.16199 1.37835 4.54204 1.65698 3.98478C1.93561 3.42752 2.32569 2.94688 2.82723 2.54287C3.34269 2.13885 3.94872 1.83236 4.64529 1.62339C5.3558 1.40048 6.13596 1.28903 6.98579 1.28903C7.82168 1.28903 8.61577 1.39352 9.36808 1.60249C10.1204 1.81146 10.7961 2.11796 11.3951 2.52197C11.618 2.67522 11.7643 2.86329 11.834 3.0862C11.9175 3.3091 11.9384 3.53201 11.8966 3.75491C11.8549 3.96388 11.7573 4.14499 11.6041 4.29824C11.4508 4.45149 11.2558 4.54204 11.019 4.5699C10.7961 4.59777 10.5383 4.52811 10.2458 4.36093C9.7303 4.06837 9.20786 3.8594 8.67847 3.73401C8.14907 3.60863 7.57788 3.54594 6.96489 3.54594C6.32404 3.54594 5.77375 3.63649 5.31401 3.8176C4.85426 3.99871 4.49901 4.25645 4.24824 4.5908C4.01141 4.91123 3.89299 5.29434 3.89299 5.74015C3.89299 6.24169 4.06017 6.6457 4.39452 6.95219C4.72888 7.24476 5.30007 7.47463 6.1081 7.6418L8.3859 8.12244C9.76513 8.415 10.7891 8.87474 11.4578 9.50166C12.1404 10.1286 12.4818 10.9645 12.4818 12.0093C12.4818 12.678 12.3425 13.2841 12.0638 13.8274C11.7991 14.3707 11.409 14.8374 10.8936 15.2275C10.392 15.6176 9.78602 15.9171 9.07551 16.1261C8.36501 16.3351 7.56394 16.4396 6.67233 16.4396Z" stroke="black" stroke-opacity="0.08" stroke-width="0.964287" mask="url(#path-1-outside-1_1741_71752)"/>
<path d="M17.8912 16.4396C17.1529 16.4396 16.4911 16.3002 15.906 16.0216C15.3348 15.7291 14.882 15.339 14.5477 14.8514C14.2272 14.3638 14.067 13.8135 14.067 13.2005C14.067 12.4482 14.2621 11.8561 14.6521 11.4242C15.0422 10.9784 15.6761 10.658 16.5538 10.4629C17.4315 10.2679 18.6087 10.1704 20.0854 10.1704H21.1303V11.675H20.1063C19.2426 11.675 18.553 11.7168 18.0375 11.8004C17.522 11.884 17.1529 12.0302 16.93 12.2392C16.721 12.4342 16.6165 12.7129 16.6165 13.0751C16.6165 13.5348 16.7767 13.911 17.0971 14.2036C17.4176 14.4961 17.8634 14.6424 18.4346 14.6424C18.8943 14.6424 19.2983 14.5379 19.6466 14.3289C20.0088 14.106 20.2944 13.8065 20.5034 13.4304C20.7124 13.0542 20.8168 12.6223 20.8168 12.1347V9.73153C20.8168 9.03496 20.6636 8.53342 20.3571 8.22693C20.0506 7.92043 19.5351 7.76719 18.8107 7.76719C18.4067 7.76719 17.9678 7.81595 17.4942 7.91347C17.0344 8.01099 16.5468 8.17817 16.0314 8.415C15.7667 8.54039 15.5298 8.57522 15.3209 8.51949C15.1258 8.46376 14.9726 8.35231 14.8611 8.18513C14.7497 8.00402 14.6939 7.80898 14.6939 7.60001C14.6939 7.39104 14.7497 7.18903 14.8611 6.99399C14.9726 6.78502 15.1606 6.63177 15.4253 6.53425C16.0662 6.26955 16.6792 6.08147 17.2643 5.97002C17.8634 5.85857 18.4067 5.80284 18.8943 5.80284C19.8974 5.80284 20.7193 5.95609 21.3602 6.26258C22.015 6.56908 22.5026 7.03578 22.823 7.6627C23.1434 8.27569 23.3036 9.06979 23.3036 10.045V15.0603C23.3036 15.4922 23.1991 15.8266 22.9902 16.0634C22.7812 16.2863 22.4817 16.3978 22.0916 16.3978C21.7015 16.3978 21.395 16.2863 21.1721 16.0634C20.9631 15.8266 20.8586 15.4922 20.8586 15.0603V14.0573H21.0258C20.9283 14.5449 20.7333 14.9698 20.4407 15.332C20.1621 15.6803 19.8068 15.952 19.3749 16.147C18.9431 16.342 18.4485 16.4396 17.8912 16.4396Z" stroke="black" stroke-opacity="0.08" stroke-width="0.964287" mask="url(#path-1-outside-1_1741_71752)"/>
<path d="M29.6538 16.4396C28.804 16.4396 28.1004 16.2863 27.5432 15.9798C26.9859 15.6594 26.5679 15.1857 26.2893 14.5588C26.0246 13.9319 25.8923 13.1517 25.8923 12.2183V7.16117C25.8923 6.71536 26.0037 6.38797 26.2266 6.17899C26.4495 5.95609 26.77 5.84464 27.1879 5.84464C27.6058 5.84464 27.9263 5.95609 28.1492 6.17899C28.386 6.38797 28.5044 6.71536 28.5044 7.16117V12.2601C28.5044 12.9845 28.6507 13.5209 28.9433 13.8692C29.2358 14.2175 29.7025 14.3916 30.3434 14.3916C31.04 14.3916 31.6112 14.1548 32.057 13.6811C32.5028 13.1935 32.7257 12.5527 32.7257 11.7586V7.16117C32.7257 6.71536 32.8371 6.38797 33.06 6.17899C33.2829 5.95609 33.6034 5.84464 34.0213 5.84464C34.4393 5.84464 34.7597 5.95609 34.9826 6.17899C35.2194 6.38797 35.3378 6.71536 35.3378 7.16117V15.0603C35.3378 15.952 34.9129 16.3978 34.0631 16.3978C33.6591 16.3978 33.3456 16.2863 33.1227 16.0634C32.8998 15.8266 32.7884 15.4922 32.7884 15.0603V13.4721L33.0809 14.0991C32.7884 14.8514 32.3426 15.4295 31.7435 15.8335C31.1584 16.2376 30.4618 16.4396 29.6538 16.4396Z" stroke="black" stroke-opacity="0.08" stroke-width="0.964287" mask="url(#path-1-outside-1_1741_71752)"/>
<path d="M41.9853 16.4396C41.0937 16.4396 40.3065 16.2236 39.6239 15.7917C38.9552 15.3599 38.4328 14.7469 38.0566 13.9528C37.6805 13.1448 37.4924 12.1974 37.4924 11.1108C37.4924 10.0102 37.6805 9.06979 38.0566 8.28962C38.4328 7.49552 38.9552 6.88254 39.6239 6.45066C40.3065 6.01878 41.0937 5.80284 41.9853 5.80284C42.8351 5.80284 43.5735 6.01182 44.2004 6.42976C44.8413 6.84771 45.2731 7.398 45.496 8.08065H45.2662V2.64735C45.2662 2.21548 45.3776 1.88809 45.6005 1.66518C45.8234 1.44228 46.1439 1.33083 46.5618 1.33083C46.9797 1.33083 47.3002 1.44228 47.5231 1.66518C47.7599 1.88809 47.8783 2.21548 47.8783 2.64735V15.0603C47.8783 15.4922 47.7669 15.8266 47.544 16.0634C47.3211 16.2863 47.0006 16.3978 46.5827 16.3978C46.1647 16.3978 45.8443 16.2863 45.6214 16.0634C45.3985 15.8266 45.2871 15.4922 45.2871 15.0603V13.4304L45.5169 14.0573C45.308 14.7817 44.883 15.3599 44.2422 15.7917C43.6013 16.2236 42.849 16.4396 41.9853 16.4396ZM42.7167 14.4543C43.2322 14.4543 43.6849 14.3289 44.075 14.0782C44.4651 13.8274 44.7646 13.4582 44.9736 12.9706C45.1965 12.4691 45.308 11.8491 45.308 11.1108C45.308 9.99623 45.0711 9.16731 44.5975 8.62398C44.1238 8.06672 43.4969 7.78809 42.7167 7.78809C42.2012 7.78809 41.7485 7.91347 41.3584 8.16424C40.9683 8.40107 40.6618 8.77026 40.4389 9.27179C40.2299 9.7594 40.1254 10.3724 40.1254 11.1108C40.1254 12.2113 40.3623 13.0472 40.8359 13.6184C41.3096 14.1757 41.9365 14.4543 42.7167 14.4543Z" stroke="black" stroke-opacity="0.08" stroke-width="0.964287" mask="url(#path-1-outside-1_1741_71752)"/>
<path d="M53.9513 16.4396C53.2129 16.4396 52.5512 16.3002 51.966 16.0216C51.3948 15.7291 50.9421 15.339 50.6077 14.8514C50.2873 14.3638 50.1271 13.8135 50.1271 13.2005C50.1271 12.4482 50.3221 11.8561 50.7122 11.4242C51.1023 10.9784 51.7362 10.658 52.6138 10.4629C53.4915 10.2679 54.6687 10.1704 56.1455 10.1704H57.1903V11.675H56.1664C55.3026 11.675 54.613 11.7168 54.0976 11.8004C53.5821 11.884 53.2129 12.0302 52.99 12.2392C52.781 12.4342 52.6765 12.7129 52.6765 13.0751C52.6765 13.5348 52.8368 13.911 53.1572 14.2036C53.4776 14.4961 53.9234 14.6424 54.4946 14.6424C54.9543 14.6424 55.3584 14.5379 55.7066 14.3289C56.0689 14.106 56.3545 13.8065 56.5634 13.4304C56.7724 13.0542 56.8769 12.6223 56.8769 12.1347V9.73153C56.8769 9.03496 56.7236 8.53342 56.4171 8.22693C56.1107 7.92043 55.5952 7.76719 54.8708 7.76719C54.4667 7.76719 54.0279 7.81595 53.5542 7.91347C53.0945 8.01099 52.6069 8.17817 52.0914 8.415C51.8267 8.54039 51.5899 8.57522 51.3809 8.51949C51.1859 8.46376 51.0326 8.35231 50.9212 8.18513C50.8097 8.00402 50.754 7.80898 50.754 7.60001C50.754 7.39104 50.8097 7.18903 50.9212 6.99399C51.0326 6.78502 51.2207 6.63177 51.4854 6.53425C52.1262 6.26955 52.7392 6.08147 53.3244 5.97002C53.9234 5.85857 54.4667 5.80284 54.9543 5.80284C55.9574 5.80284 56.7794 5.95609 57.4202 6.26258C58.075 6.56908 58.5626 7.03578 58.883 7.6627C59.2035 8.27569 59.3637 9.06979 59.3637 10.045V15.0603C59.3637 15.4922 59.2592 15.8266 59.0502 16.0634C58.8412 16.2863 58.5417 16.3978 58.1516 16.3978C57.7615 16.3978 57.455 16.2863 57.2321 16.0634C57.0232 15.8266 56.9187 15.4922 56.9187 15.0603V14.0573H57.0859C56.9883 14.5449 56.7933 14.9698 56.5007 15.332C56.2221 15.6803 55.8669 15.952 55.435 16.147C55.0031 16.342 54.5085 16.4396 53.9513 16.4396Z" stroke="black" stroke-opacity="0.08" stroke-width="0.964287" mask="url(#path-1-outside-1_1741_71752)"/>
<mask id="path-2-outside-2_1741_71752" maskUnits="userSpaceOnUse" x="60.6674" y="0.602295" width="49" height="17" fill="black">
<rect fill="white" x="60.6674" y="0.602295" width="49" height="17"/>
<path d="M63.0884 16.5021C62.6286 16.5021 62.2734 16.3836 62.0226 16.1468C61.7858 15.896 61.6674 15.5408 61.6674 15.081V3.19049C61.6674 2.73075 61.7858 2.38246 62.0226 2.14562C62.2734 1.89486 62.6286 1.76947 63.0884 1.76947H68.1037C69.1347 1.76947 70.0123 1.92272 70.7368 2.22921C71.4612 2.53571 72.0115 2.97455 72.3877 3.54574C72.7777 4.11693 72.9728 4.79958 72.9728 5.59368C72.9728 6.48529 72.7151 7.23759 72.1996 7.85058C71.6841 8.46357 70.9806 8.87455 70.089 9.08352V8.77006C71.1199 8.92331 71.921 9.31339 72.4921 9.94031C73.0633 10.5672 73.3489 11.3822 73.3489 12.3853C73.3489 13.6949 72.9031 14.7119 72.0115 15.4363C71.1338 16.1468 69.9079 16.5021 68.3336 16.5021H63.0884ZM64.2377 14.475H67.9992C68.9466 14.475 69.6432 14.2939 70.089 13.9317C70.5348 13.5555 70.7577 12.9983 70.7577 12.2599C70.7577 11.5076 70.5348 10.9503 70.089 10.5881C69.6432 10.2259 68.9466 10.0448 67.9992 10.0448H64.2377V14.475ZM64.2377 8.01776H67.644C68.5635 8.01776 69.2461 7.84362 69.6919 7.49533C70.1517 7.13311 70.3815 6.60371 70.3815 5.90713C70.3815 5.21056 70.1517 4.68813 69.6919 4.33984C69.2461 3.97762 68.5635 3.79651 67.644 3.79651H64.2377V8.01776Z"/>
<path d="M80.464 16.711C79.4052 16.711 78.4857 16.4951 77.7055 16.0632C76.9254 15.6313 76.3193 15.0183 75.8875 14.2243C75.4556 13.4162 75.2396 12.4689 75.2396 11.3822C75.2396 10.5603 75.3581 9.82886 75.5949 9.18801C75.8457 8.53323 76.2009 7.97597 76.6607 7.51622C77.1204 7.04255 77.6707 6.6873 78.3115 6.45046C78.9524 6.1997 79.6699 6.07431 80.464 6.07431C81.5228 6.07431 82.4422 6.29025 83.2224 6.72213C84.0026 7.15401 84.6086 7.76699 85.0405 8.56109C85.4723 9.35519 85.6883 10.2956 85.6883 11.3822C85.6883 12.2042 85.5629 12.9426 85.3121 13.5973C85.0753 14.2521 84.727 14.8163 84.2673 15.29C83.8075 15.7498 83.2572 16.105 82.6164 16.3558C81.9755 16.5926 81.2581 16.711 80.464 16.711ZM80.464 14.7258C80.9794 14.7258 81.4322 14.6004 81.8223 14.3496C82.2124 14.0989 82.5119 13.7297 82.7209 13.2421C82.9438 12.7405 83.0552 12.1206 83.0552 11.3822C83.0552 10.2677 82.8184 9.43877 82.3447 8.89544C81.871 8.33818 81.2441 8.05955 80.464 8.05955C79.9485 8.05955 79.4957 8.18494 79.1056 8.43571C78.7156 8.67254 78.4091 9.04173 78.1862 9.54326C77.9772 10.0309 77.8727 10.6439 77.8727 11.3822C77.8727 12.4828 78.1095 13.3187 78.5832 13.8899C79.0569 14.4472 79.6838 14.7258 80.464 14.7258Z"/>
<path d="M92.5044 16.711C91.4456 16.711 90.5261 16.4951 89.7459 16.0632C88.9658 15.6313 88.3598 15.0183 87.9279 14.2243C87.496 13.4162 87.2801 12.4689 87.2801 11.3822C87.2801 10.5603 87.3985 9.82886 87.6353 9.18801C87.8861 8.53323 88.2413 7.97597 88.7011 7.51622C89.1608 7.04255 89.7111 6.6873 90.352 6.45046C90.9928 6.1997 91.7103 6.07431 92.5044 6.07431C93.5632 6.07431 94.4827 6.29025 95.2628 6.72213C96.043 7.15401 96.649 7.76699 97.0809 8.56109C97.5128 9.35519 97.7287 10.2956 97.7287 11.3822C97.7287 12.2042 97.6033 12.9426 97.3526 13.5973C97.1157 14.2521 96.7674 14.8163 96.3077 15.29C95.848 15.7498 95.2977 16.105 94.6568 16.3558C94.016 16.5926 93.2985 16.711 92.5044 16.711ZM92.5044 14.7258C93.0199 14.7258 93.4726 14.6004 93.8627 14.3496C94.2528 14.0989 94.5523 13.7297 94.7613 13.2421C94.9842 12.7405 95.0956 12.1206 95.0956 11.3822C95.0956 10.2677 94.8588 9.43877 94.3851 8.89544C93.9115 8.33818 93.2846 8.05955 92.5044 8.05955C91.9889 8.05955 91.5361 8.18494 91.1461 8.43571C90.756 8.67254 90.4495 9.04173 90.2266 9.54326C90.0176 10.0309 89.9131 10.6439 89.9131 11.3822C89.9131 12.4828 90.15 13.3187 90.6236 13.8899C91.0973 14.4472 91.7242 14.7258 92.5044 14.7258Z"/>
<path d="M101.18 16.6692C100.762 16.6692 100.442 16.5578 100.219 16.3349C99.9962 16.098 99.8847 15.7637 99.8847 15.3318V2.91882C99.8847 2.48695 99.9962 2.15956 100.219 1.93665C100.442 1.71375 100.762 1.60229 101.18 1.60229C101.598 1.60229 101.919 1.71375 102.142 1.93665C102.378 2.15956 102.497 2.48695 102.497 2.91882V10.6299H102.539L105.987 6.99379C106.265 6.71516 106.509 6.49922 106.718 6.34598C106.927 6.19273 107.213 6.11611 107.575 6.11611C107.937 6.11611 108.209 6.21363 108.39 6.40867C108.585 6.58978 108.682 6.81268 108.682 7.07738C108.682 7.34208 108.557 7.60678 108.306 7.87148L104.67 11.7166V10.6299L108.662 14.9348C108.912 15.1995 109.024 15.4711 108.996 15.7498C108.982 16.0145 108.871 16.2374 108.662 16.4185C108.453 16.5856 108.188 16.6692 107.867 16.6692C107.477 16.6692 107.164 16.5926 106.927 16.4394C106.704 16.2861 106.453 16.0562 106.175 15.7498L102.539 11.9464H102.497V15.3318C102.497 16.2234 102.058 16.6692 101.18 16.6692Z"/>
</mask>
<g filter="url(#filter1_i_1741_71752)">
<path d="M63.0884 16.5021C62.6286 16.5021 62.2734 16.3836 62.0226 16.1468C61.7858 15.896 61.6674 15.5408 61.6674 15.081V3.19049C61.6674 2.73075 61.7858 2.38246 62.0226 2.14562C62.2734 1.89486 62.6286 1.76947 63.0884 1.76947H68.1037C69.1347 1.76947 70.0123 1.92272 70.7368 2.22921C71.4612 2.53571 72.0115 2.97455 72.3877 3.54574C72.7777 4.11693 72.9728 4.79958 72.9728 5.59368C72.9728 6.48529 72.7151 7.23759 72.1996 7.85058C71.6841 8.46357 70.9806 8.87455 70.089 9.08352V8.77006C71.1199 8.92331 71.921 9.31339 72.4921 9.94031C73.0633 10.5672 73.3489 11.3822 73.3489 12.3853C73.3489 13.6949 72.9031 14.7119 72.0115 15.4363C71.1338 16.1468 69.9079 16.5021 68.3336 16.5021H63.0884ZM64.2377 14.475H67.9992C68.9466 14.475 69.6432 14.2939 70.089 13.9317C70.5348 13.5555 70.7577 12.9983 70.7577 12.2599C70.7577 11.5076 70.5348 10.9503 70.089 10.5881C69.6432 10.2259 68.9466 10.0448 67.9992 10.0448H64.2377V14.475ZM64.2377 8.01776H67.644C68.5635 8.01776 69.2461 7.84362 69.6919 7.49533C70.1517 7.13311 70.3815 6.60371 70.3815 5.90713C70.3815 5.21056 70.1517 4.68813 69.6919 4.33984C69.2461 3.97762 68.5635 3.79651 67.644 3.79651H64.2377V8.01776Z" fill="#008B74"/>
<path d="M80.464 16.711C79.4052 16.711 78.4857 16.4951 77.7055 16.0632C76.9254 15.6313 76.3193 15.0183 75.8875 14.2243C75.4556 13.4162 75.2396 12.4689 75.2396 11.3822C75.2396 10.5603 75.3581 9.82886 75.5949 9.18801C75.8457 8.53323 76.2009 7.97597 76.6607 7.51622C77.1204 7.04255 77.6707 6.6873 78.3115 6.45046C78.9524 6.1997 79.6699 6.07431 80.464 6.07431C81.5228 6.07431 82.4422 6.29025 83.2224 6.72213C84.0026 7.15401 84.6086 7.76699 85.0405 8.56109C85.4723 9.35519 85.6883 10.2956 85.6883 11.3822C85.6883 12.2042 85.5629 12.9426 85.3121 13.5973C85.0753 14.2521 84.727 14.8163 84.2673 15.29C83.8075 15.7498 83.2572 16.105 82.6164 16.3558C81.9755 16.5926 81.2581 16.711 80.464 16.711ZM80.464 14.7258C80.9794 14.7258 81.4322 14.6004 81.8223 14.3496C82.2124 14.0989 82.5119 13.7297 82.7209 13.2421C82.9438 12.7405 83.0552 12.1206 83.0552 11.3822C83.0552 10.2677 82.8184 9.43877 82.3447 8.89544C81.871 8.33818 81.2441 8.05955 80.464 8.05955C79.9485 8.05955 79.4957 8.18494 79.1056 8.43571C78.7156 8.67254 78.4091 9.04173 78.1862 9.54326C77.9772 10.0309 77.8727 10.6439 77.8727 11.3822C77.8727 12.4828 78.1095 13.3187 78.5832 13.8899C79.0569 14.4472 79.6838 14.7258 80.464 14.7258Z" fill="#008B74"/>
<path d="M92.5044 16.711C91.4456 16.711 90.5261 16.4951 89.7459 16.0632C88.9658 15.6313 88.3598 15.0183 87.9279 14.2243C87.496 13.4162 87.2801 12.4689 87.2801 11.3822C87.2801 10.5603 87.3985 9.82886 87.6353 9.18801C87.8861 8.53323 88.2413 7.97597 88.7011 7.51622C89.1608 7.04255 89.7111 6.6873 90.352 6.45046C90.9928 6.1997 91.7103 6.07431 92.5044 6.07431C93.5632 6.07431 94.4827 6.29025 95.2628 6.72213C96.043 7.15401 96.649 7.76699 97.0809 8.56109C97.5128 9.35519 97.7287 10.2956 97.7287 11.3822C97.7287 12.2042 97.6033 12.9426 97.3526 13.5973C97.1157 14.2521 96.7674 14.8163 96.3077 15.29C95.848 15.7498 95.2977 16.105 94.6568 16.3558C94.016 16.5926 93.2985 16.711 92.5044 16.711ZM92.5044 14.7258C93.0199 14.7258 93.4726 14.6004 93.8627 14.3496C94.2528 14.0989 94.5523 13.7297 94.7613 13.2421C94.9842 12.7405 95.0956 12.1206 95.0956 11.3822C95.0956 10.2677 94.8588 9.43877 94.3851 8.89544C93.9115 8.33818 93.2846 8.05955 92.5044 8.05955C91.9889 8.05955 91.5361 8.18494 91.1461 8.43571C90.756 8.67254 90.4495 9.04173 90.2266 9.54326C90.0176 10.0309 89.9131 10.6439 89.9131 11.3822C89.9131 12.4828 90.15 13.3187 90.6236 13.8899C91.0973 14.4472 91.7242 14.7258 92.5044 14.7258Z" fill="#008B74"/>
<path d="M101.18 16.6692C100.762 16.6692 100.442 16.5578 100.219 16.3349C99.9962 16.098 99.8847 15.7637 99.8847 15.3318V2.91882C99.8847 2.48695 99.9962 2.15956 100.219 1.93665C100.442 1.71375 100.762 1.60229 101.18 1.60229C101.598 1.60229 101.919 1.71375 102.142 1.93665C102.378 2.15956 102.497 2.48695 102.497 2.91882V10.6299H102.539L105.987 6.99379C106.265 6.71516 106.509 6.49922 106.718 6.34598C106.927 6.19273 107.213 6.11611 107.575 6.11611C107.937 6.11611 108.209 6.21363 108.39 6.40867C108.585 6.58978 108.682 6.81268 108.682 7.07738C108.682 7.34208 108.557 7.60678 108.306 7.87148L104.67 11.7166V10.6299L108.662 14.9348C108.912 15.1995 109.024 15.4711 108.996 15.7498C108.982 16.0145 108.871 16.2374 108.662 16.4185C108.453 16.5856 108.188 16.6692 107.867 16.6692C107.477 16.6692 107.164 16.5926 106.927 16.4394C106.704 16.2861 106.453 16.0562 106.175 15.7498L102.539 11.9464H102.497V15.3318C102.497 16.2234 102.058 16.6692 101.18 16.6692Z" fill="#008B74"/>
</g>
<path d="M63.0884 16.5021C62.6286 16.5021 62.2734 16.3836 62.0226 16.1468C61.7858 15.896 61.6674 15.5408 61.6674 15.081V3.19049C61.6674 2.73075 61.7858 2.38246 62.0226 2.14562C62.2734 1.89486 62.6286 1.76947 63.0884 1.76947H68.1037C69.1347 1.76947 70.0123 1.92272 70.7368 2.22921C71.4612 2.53571 72.0115 2.97455 72.3877 3.54574C72.7777 4.11693 72.9728 4.79958 72.9728 5.59368C72.9728 6.48529 72.7151 7.23759 72.1996 7.85058C71.6841 8.46357 70.9806 8.87455 70.089 9.08352V8.77006C71.1199 8.92331 71.921 9.31339 72.4921 9.94031C73.0633 10.5672 73.3489 11.3822 73.3489 12.3853C73.3489 13.6949 72.9031 14.7119 72.0115 15.4363C71.1338 16.1468 69.9079 16.5021 68.3336 16.5021H63.0884ZM64.2377 14.475H67.9992C68.9466 14.475 69.6432 14.2939 70.089 13.9317C70.5348 13.5555 70.7577 12.9983 70.7577 12.2599C70.7577 11.5076 70.5348 10.9503 70.089 10.5881C69.6432 10.2259 68.9466 10.0448 67.9992 10.0448H64.2377V14.475ZM64.2377 8.01776H67.644C68.5635 8.01776 69.2461 7.84362 69.6919 7.49533C70.1517 7.13311 70.3815 6.60371 70.3815 5.90713C70.3815 5.21056 70.1517 4.68813 69.6919 4.33984C69.2461 3.97762 68.5635 3.79651 67.644 3.79651H64.2377V8.01776Z" stroke="black" stroke-opacity="0.08" stroke-width="0.964287" mask="url(#path-2-outside-2_1741_71752)"/>
<path d="M80.464 16.711C79.4052 16.711 78.4857 16.4951 77.7055 16.0632C76.9254 15.6313 76.3193 15.0183 75.8875 14.2243C75.4556 13.4162 75.2396 12.4689 75.2396 11.3822C75.2396 10.5603 75.3581 9.82886 75.5949 9.18801C75.8457 8.53323 76.2009 7.97597 76.6607 7.51622C77.1204 7.04255 77.6707 6.6873 78.3115 6.45046C78.9524 6.1997 79.6699 6.07431 80.464 6.07431C81.5228 6.07431 82.4422 6.29025 83.2224 6.72213C84.0026 7.15401 84.6086 7.76699 85.0405 8.56109C85.4723 9.35519 85.6883 10.2956 85.6883 11.3822C85.6883 12.2042 85.5629 12.9426 85.3121 13.5973C85.0753 14.2521 84.727 14.8163 84.2673 15.29C83.8075 15.7498 83.2572 16.105 82.6164 16.3558C81.9755 16.5926 81.2581 16.711 80.464 16.711ZM80.464 14.7258C80.9794 14.7258 81.4322 14.6004 81.8223 14.3496C82.2124 14.0989 82.5119 13.7297 82.7209 13.2421C82.9438 12.7405 83.0552 12.1206 83.0552 11.3822C83.0552 10.2677 82.8184 9.43877 82.3447 8.89544C81.871 8.33818 81.2441 8.05955 80.464 8.05955C79.9485 8.05955 79.4957 8.18494 79.1056 8.43571C78.7156 8.67254 78.4091 9.04173 78.1862 9.54326C77.9772 10.0309 77.8727 10.6439 77.8727 11.3822C77.8727 12.4828 78.1095 13.3187 78.5832 13.8899C79.0569 14.4472 79.6838 14.7258 80.464 14.7258Z" stroke="black" stroke-opacity="0.08" stroke-width="0.964287" mask="url(#path-2-outside-2_1741_71752)"/>
<path d="M92.5044 16.711C91.4456 16.711 90.5261 16.4951 89.7459 16.0632C88.9658 15.6313 88.3598 15.0183 87.9279 14.2243C87.496 13.4162 87.2801 12.4689 87.2801 11.3822C87.2801 10.5603 87.3985 9.82886 87.6353 9.18801C87.8861 8.53323 88.2413 7.97597 88.7011 7.51622C89.1608 7.04255 89.7111 6.6873 90.352 6.45046C90.9928 6.1997 91.7103 6.07431 92.5044 6.07431C93.5632 6.07431 94.4827 6.29025 95.2628 6.72213C96.043 7.15401 96.649 7.76699 97.0809 8.56109C97.5128 9.35519 97.7287 10.2956 97.7287 11.3822C97.7287 12.2042 97.6033 12.9426 97.3526 13.5973C97.1157 14.2521 96.7674 14.8163 96.3077 15.29C95.848 15.7498 95.2977 16.105 94.6568 16.3558C94.016 16.5926 93.2985 16.711 92.5044 16.711ZM92.5044 14.7258C93.0199 14.7258 93.4726 14.6004 93.8627 14.3496C94.2528 14.0989 94.5523 13.7297 94.7613 13.2421C94.9842 12.7405 95.0956 12.1206 95.0956 11.3822C95.0956 10.2677 94.8588 9.43877 94.3851 8.89544C93.9115 8.33818 93.2846 8.05955 92.5044 8.05955C91.9889 8.05955 91.5361 8.18494 91.1461 8.43571C90.756 8.67254 90.4495 9.04173 90.2266 9.54326C90.0176 10.0309 89.9131 10.6439 89.9131 11.3822C89.9131 12.4828 90.15 13.3187 90.6236 13.8899C91.0973 14.4472 91.7242 14.7258 92.5044 14.7258Z" stroke="black" stroke-opacity="0.08" stroke-width="0.964287" mask="url(#path-2-outside-2_1741_71752)"/>
<path d="M101.18 16.6692C100.762 16.6692 100.442 16.5578 100.219 16.3349C99.9962 16.098 99.8847 15.7637 99.8847 15.3318V2.91882C99.8847 2.48695 99.9962 2.15956 100.219 1.93665C100.442 1.71375 100.762 1.60229 101.18 1.60229C101.598 1.60229 101.919 1.71375 102.142 1.93665C102.378 2.15956 102.497 2.48695 102.497 2.91882V10.6299H102.539L105.987 6.99379C106.265 6.71516 106.509 6.49922 106.718 6.34598C106.927 6.19273 107.213 6.11611 107.575 6.11611C107.937 6.11611 108.209 6.21363 108.39 6.40867C108.585 6.58978 108.682 6.81268 108.682 7.07738C108.682 7.34208 108.557 7.60678 108.306 7.87148L104.67 11.7166V10.6299L108.662 14.9348C108.912 15.1995 109.024 15.4711 108.996 15.7498C108.982 16.0145 108.871 16.2374 108.662 16.4185C108.453 16.5856 108.188 16.6692 107.867 16.6692C107.477 16.6692 107.164 16.5926 106.927 16.4394C106.704 16.2861 106.453 16.0562 106.175 15.7498L102.539 11.9464H102.497V15.3318C102.497 16.2234 102.058 16.6692 101.18 16.6692Z" stroke="black" stroke-opacity="0.08" stroke-width="0.964287" mask="url(#path-2-outside-2_1741_71752)"/>
<defs>
<filter id="filter0_i_1741_71752" x="0.5177" y="0.806885" width="59.3281" height="17.286" filterUnits="userSpaceOnUse" color-interpolation-filters="sRGB">
<feFlood flood-opacity="0" result="BackgroundImageFix"/>
<feBlend mode="normal" in="SourceGraphic" in2="BackgroundImageFix" result="shape"/>
<feColorMatrix in="SourceAlpha" type="matrix" values="0 0 0 0 0 0 0 0 0 0 0 0 0 0 0 0 0 0 127 0" result="hardAlpha"/>
<feOffset dy="1.17119"/>
<feGaussianBlur stdDeviation="0.585595"/>
<feComposite in2="hardAlpha" operator="arithmetic" k2="-1" k3="1"/>
<feColorMatrix type="matrix" values="0 0 0 0 0 0 0 0 0 0 0 0 0 0 0 0 0 0 0.16 0"/>
<feBlend mode="normal" in2="shape" result="effect1_innerShadow_1741_71752"/>
</filter>
<filter id="filter1_i_1741_71752" x="61.1852" y="1.12015" width="48.2971" height="17.2442" filterUnits="userSpaceOnUse" color-interpolation-filters="sRGB">
<feFlood flood-opacity="0" result="BackgroundImageFix"/>
<feBlend mode="normal" in="SourceGraphic" in2="BackgroundImageFix" result="shape"/>
<feColorMatrix in="SourceAlpha" type="matrix" values="0 0 0 0 0 0 0 0 0 0 0 0 0 0 0 0 0 0 127 0" result="hardAlpha"/>
<feOffset dy="1.17119"/>
<feGaussianBlur stdDeviation="0.585595"/>
<feComposite in2="hardAlpha" operator="arithmetic" k2="-1" k3="1"/>
<feColorMatrix type="matrix" values="0 0 0 0 0 0 0 0 0 0 0 0 0 0 0 0 0 0 0.16 0"/>
<feBlend mode="normal" in2="shape" result="effect1_innerShadow_1741_71752"/>
</filter>
</defs>
</svg>
