<svg width="360" height="52" viewBox="0 0 360 52" fill="none" xmlns="http://www.w3.org/2000/svg">
<mask id="path-1-outside-1_766_26497" maskUnits="userSpaceOnUse" x="15" y="15" width="78" height="22" fill="black">
<rect fill="white" x="15" y="15" width="78" height="22"/>
<path d="M23.3532 35.6395C22.5586 35.6395 21.7639 35.5763 20.9693 35.4499C20.1747 35.3416 19.4253 35.17 18.7209 34.9352C18.0166 34.6824 17.3845 34.3754 16.8247 34.0142C16.4996 33.7975 16.2739 33.5356 16.1475 33.2286C16.0211 32.9216 15.9759 32.6236 16.012 32.3347C16.0662 32.0277 16.1836 31.7658 16.3642 31.5491C16.5628 31.3143 16.8067 31.1699 17.0956 31.1157C17.3845 31.0615 17.7006 31.1428 18.0437 31.3595C18.8383 31.829 19.6781 32.1721 20.563 32.3889C21.4479 32.6056 22.378 32.7139 23.3532 32.7139C24.7799 32.7139 25.8183 32.4792 26.4684 32.0096C27.1185 31.522 27.4436 30.899 27.4436 30.1405C27.4436 29.5084 27.2088 29.0118 26.7393 28.6506C26.2878 28.2894 25.5022 27.9914 24.3825 27.7566L21.4028 27.1336C19.6871 26.7724 18.4049 26.1674 17.5561 25.3186C16.7254 24.4518 16.31 23.314 16.31 21.9054C16.31 21.0205 16.4906 20.2169 16.8518 19.4945C17.213 18.7721 17.7186 18.1491 18.3688 17.6253C19.037 17.1016 19.8226 16.7043 20.7255 16.4334C21.6466 16.1445 22.6579 16 23.7595 16C24.8431 16 25.8724 16.1354 26.8476 16.4063C27.8229 16.6772 28.6987 17.0745 29.4753 17.5983C29.7642 17.7969 29.9539 18.0407 30.0442 18.3297C30.1525 18.6186 30.1796 18.9076 30.1254 19.1965C30.0712 19.4674 29.9448 19.7022 29.7462 19.9008C29.5475 20.0995 29.2947 20.2169 28.9877 20.253C28.6987 20.2891 28.3646 20.1988 27.9854 19.9821C27.3172 19.6028 26.64 19.3319 25.9537 19.1694C25.2675 19.0069 24.527 18.9256 23.7324 18.9256C22.9017 18.9256 22.1883 19.043 21.5924 19.2778C20.9964 19.5125 20.5359 19.8466 20.2108 20.2801C19.9038 20.6954 19.7503 21.1921 19.7503 21.77C19.7503 22.4201 19.967 22.9438 20.4005 23.3411C20.8339 23.7204 21.5743 24.0184 22.6218 24.2351L25.5745 24.8581C27.3623 25.2374 28.6897 25.8333 29.5565 26.646C30.4415 27.4587 30.8839 28.5422 30.8839 29.8967C30.8839 30.7635 30.7033 31.5491 30.3421 32.2534C29.999 32.9577 29.4933 33.5627 28.8251 34.0684C28.175 34.574 27.3894 34.9623 26.4684 35.2332C25.5474 35.5041 24.509 35.6395 23.3532 35.6395Z"/>
<path d="M37.8962 35.6395C36.939 35.6395 36.0812 35.4589 35.3227 35.0978C34.5823 34.7185 33.9953 34.2129 33.5619 33.5808C33.1465 32.9487 32.9389 32.2354 32.9389 31.4407C32.9389 30.4655 33.1917 29.698 33.6974 29.1382C34.203 28.5603 35.0247 28.1449 36.1625 27.8921C37.3002 27.6392 38.8262 27.5128 40.7405 27.5128H42.095V29.4632H40.7676C39.6479 29.4632 38.754 29.5174 38.0858 29.6258C37.4176 29.7341 36.939 29.9238 36.6501 30.1946C36.3792 30.4475 36.2437 30.8087 36.2437 31.2782C36.2437 31.8742 36.4514 32.3618 36.8668 32.741C37.2821 33.1203 37.86 33.3099 38.6005 33.3099C39.1964 33.3099 39.7201 33.1744 40.1716 32.9035C40.6412 32.6146 41.0114 32.2263 41.2823 31.7387C41.5532 31.2511 41.6886 30.6913 41.6886 30.0592V26.944C41.6886 26.041 41.49 25.3909 41.0927 24.9936C40.6954 24.5962 40.0272 24.3976 39.0881 24.3976C38.5643 24.3976 37.9955 24.4608 37.3815 24.5872C36.7855 24.7136 36.1534 24.9303 35.4852 25.2374C35.1421 25.3999 34.8351 25.445 34.5642 25.3728C34.3114 25.3006 34.1127 25.1561 33.9682 24.9394C33.8238 24.7046 33.7515 24.4518 33.7515 24.1809C33.7515 23.91 33.8238 23.6481 33.9682 23.3953C34.1127 23.1244 34.3565 22.9258 34.6996 22.7993C35.5304 22.4562 36.325 22.2124 37.0835 22.0679C37.86 21.9235 38.5644 21.8512 39.1964 21.8512C40.4967 21.8512 41.5622 22.0499 42.3929 22.4472C43.2417 22.8445 43.8738 23.4495 44.2892 24.2622C44.7045 25.0568 44.9122 26.0861 44.9122 27.3503V33.8517C44.9122 34.4115 44.7768 34.8449 44.5059 35.1519C44.235 35.4409 43.8467 35.5854 43.341 35.5854C42.8354 35.5854 42.4381 35.4409 42.1491 35.1519C41.8782 34.8449 41.7428 34.4115 41.7428 33.8517V32.5514H41.9595C41.8331 33.1835 41.5803 33.7343 41.201 34.2038C40.8398 34.6553 40.3793 35.0075 39.8195 35.2603C39.2596 35.5131 38.6185 35.6395 37.8962 35.6395Z"/>
<path d="M53.1439 35.6395C52.0423 35.6395 51.1303 35.4409 50.4079 35.0436C49.6855 34.6282 49.1437 34.0142 48.7826 33.2015C48.4394 32.3889 48.2679 31.3775 48.2679 30.1676V23.612C48.2679 23.0341 48.4123 22.6097 48.7013 22.3388C48.9902 22.0499 49.4056 21.9054 49.9474 21.9054C50.4892 21.9054 50.9045 22.0499 51.1935 22.3388C51.5005 22.6097 51.654 23.0341 51.654 23.612V30.2217C51.654 31.1608 51.8436 31.8561 52.2229 32.3076C52.6021 32.7591 53.2071 32.9848 54.0378 32.9848C54.9408 32.9848 55.6812 32.6778 56.2591 32.0638C56.837 31.4317 57.126 30.601 57.126 29.5716V23.612C57.126 23.0341 57.2704 22.6097 57.5594 22.3388C57.8483 22.0499 58.2637 21.9054 58.8055 21.9054C59.3473 21.9054 59.7626 22.0499 60.0516 22.3388C60.3586 22.6097 60.5121 23.0341 60.5121 23.612V33.8517C60.5121 35.0075 59.9613 35.5854 58.8597 35.5854C58.3359 35.5854 57.9296 35.4409 57.6407 35.1519C57.3517 34.8449 57.2072 34.4115 57.2072 33.8517V31.7929L57.5865 32.6056C57.2072 33.5808 56.6293 34.3302 55.8528 34.854C55.0943 35.3777 54.1913 35.6395 53.1439 35.6395Z"/>
<path d="M69.1292 35.6395C67.9734 35.6395 66.953 35.3596 66.0681 34.7998C65.2012 34.2399 64.524 33.4453 64.0364 32.4159C63.5488 31.3685 63.305 30.1405 63.305 28.7318C63.305 27.3052 63.5488 26.0861 64.0364 25.0748C64.524 24.0454 65.2012 23.2508 66.0681 22.691C66.953 22.1311 67.9734 21.8512 69.1292 21.8512C70.2308 21.8512 71.1879 22.1221 72.0006 22.6639C72.8313 23.2057 73.3912 23.919 73.6801 24.8039H73.3821V17.7608C73.3821 17.2009 73.5266 16.7766 73.8156 16.4876C74.1045 16.1987 74.5199 16.0542 75.0616 16.0542C75.6034 16.0542 76.0188 16.1987 76.3077 16.4876C76.6147 16.7766 76.7683 17.2009 76.7683 17.7608V33.8517C76.7683 34.4115 76.6238 34.8449 76.3348 35.1519C76.0459 35.4409 75.6305 35.5854 75.0887 35.5854C74.547 35.5854 74.1316 35.4409 73.8426 35.1519C73.5537 34.8449 73.4092 34.4115 73.4092 33.8517V31.7387L73.7072 32.5514C73.4363 33.4905 72.8855 34.2399 72.0548 34.7998C71.224 35.3596 70.2488 35.6395 69.1292 35.6395ZM70.0773 33.0661C70.7455 33.0661 71.3324 32.9035 71.8381 32.5785C72.3437 32.2534 72.732 31.7748 73.0029 31.1428C73.2918 30.4926 73.4363 29.689 73.4363 28.7318C73.4363 27.2871 73.1293 26.2126 72.5153 25.5082C71.9013 24.7859 71.0886 24.4247 70.0773 24.4247C69.4091 24.4247 68.8221 24.5872 68.3165 24.9123C67.8108 25.2193 67.4135 25.6979 67.1246 26.348C66.8537 26.9801 66.7182 27.7747 66.7182 28.7318C66.7182 30.1585 67.0252 31.2421 67.6393 31.9825C68.2533 32.7049 69.0659 33.0661 70.0773 33.0661Z"/>
<path d="M84.6406 35.6395C83.6834 35.6395 82.8256 35.4589 82.0671 35.0978C81.3267 34.7185 80.7398 34.2129 80.3063 33.5808C79.891 32.9487 79.6833 32.2354 79.6833 31.4407C79.6833 30.4655 79.9361 29.698 80.4418 29.1382C80.9474 28.5603 81.7691 28.1449 82.9069 27.8921C84.0446 27.6392 85.5706 27.5128 87.4849 27.5128H88.8394V29.4632H87.512C86.3923 29.4632 85.4984 29.5174 84.8302 29.6258C84.162 29.7341 83.6834 29.9238 83.3945 30.1946C83.1236 30.4475 82.9881 30.8087 82.9881 31.2782C82.9881 31.8742 83.1958 32.3618 83.6112 32.741C84.0266 33.1203 84.6045 33.3099 85.3449 33.3099C85.9408 33.3099 86.4646 33.1744 86.9161 32.9035C87.3856 32.6146 87.7558 32.2263 88.0267 31.7387C88.2976 31.2511 88.433 30.6913 88.433 30.0592V26.944C88.433 26.041 88.2344 25.3909 87.8371 24.9936C87.4398 24.5962 86.7716 24.3976 85.8325 24.3976C85.3088 24.3976 84.7399 24.4608 84.1259 24.5872C83.5299 24.7136 82.8979 24.9303 82.2297 25.2374C81.8865 25.3999 81.5795 25.445 81.3086 25.3728C81.0558 25.3006 80.8571 25.1561 80.7127 24.9394C80.5682 24.7046 80.496 24.4518 80.496 24.1809C80.496 23.91 80.5682 23.6481 80.7127 23.3953C80.8571 23.1244 81.1009 22.9258 81.4441 22.7993C82.2748 22.4562 83.0694 22.2124 83.8279 22.0679C84.6045 21.9235 85.3088 21.8512 85.9408 21.8512C87.2411 21.8512 88.3066 22.0499 89.1374 22.4472C89.9861 22.8445 90.6182 23.4495 91.0336 24.2622C91.449 25.0568 91.6566 26.0861 91.6566 27.3503V33.8517C91.6566 34.4115 91.5212 34.8449 91.2503 35.1519C90.9794 35.4409 90.5911 35.5854 90.0855 35.5854C89.5798 35.5854 89.1825 35.4409 88.8935 35.1519C88.6227 34.8449 88.4872 34.4115 88.4872 33.8517V32.5514H88.7039C88.5775 33.1835 88.3247 33.7343 87.9454 34.2038C87.5842 34.6553 87.1237 35.0075 86.5639 35.2603C86.0041 35.5131 85.3629 35.6395 84.6406 35.6395Z"/>
</mask>
<g filter="url(#filter0_i_766_26497)">
<path d="M23.3532 35.6395C22.5586 35.6395 21.7639 35.5763 20.9693 35.4499C20.1747 35.3416 19.4253 35.17 18.7209 34.9352C18.0166 34.6824 17.3845 34.3754 16.8247 34.0142C16.4996 33.7975 16.2739 33.5356 16.1475 33.2286C16.0211 32.9216 15.9759 32.6236 16.012 32.3347C16.0662 32.0277 16.1836 31.7658 16.3642 31.5491C16.5628 31.3143 16.8067 31.1699 17.0956 31.1157C17.3845 31.0615 17.7006 31.1428 18.0437 31.3595C18.8383 31.829 19.6781 32.1721 20.563 32.3889C21.4479 32.6056 22.378 32.7139 23.3532 32.7139C24.7799 32.7139 25.8183 32.4792 26.4684 32.0096C27.1185 31.522 27.4436 30.899 27.4436 30.1405C27.4436 29.5084 27.2088 29.0118 26.7393 28.6506C26.2878 28.2894 25.5022 27.9914 24.3825 27.7566L21.4028 27.1336C19.6871 26.7724 18.4049 26.1674 17.5561 25.3186C16.7254 24.4518 16.31 23.314 16.31 21.9054C16.31 21.0205 16.4906 20.2169 16.8518 19.4945C17.213 18.7721 17.7186 18.1491 18.3688 17.6253C19.037 17.1016 19.8226 16.7043 20.7255 16.4334C21.6466 16.1445 22.6579 16 23.7595 16C24.8431 16 25.8724 16.1354 26.8476 16.4063C27.8229 16.6772 28.6987 17.0745 29.4753 17.5983C29.7642 17.7969 29.9539 18.0407 30.0442 18.3297C30.1525 18.6186 30.1796 18.9076 30.1254 19.1965C30.0712 19.4674 29.9448 19.7022 29.7462 19.9008C29.5475 20.0995 29.2947 20.2169 28.9877 20.253C28.6987 20.2891 28.3646 20.1988 27.9854 19.9821C27.3172 19.6028 26.64 19.3319 25.9537 19.1694C25.2675 19.0069 24.527 18.9256 23.7324 18.9256C22.9017 18.9256 22.1883 19.043 21.5924 19.2778C20.9964 19.5125 20.5359 19.8466 20.2108 20.2801C19.9038 20.6954 19.7503 21.1921 19.7503 21.77C19.7503 22.4201 19.967 22.9438 20.4005 23.3411C20.8339 23.7204 21.5743 24.0184 22.6218 24.2351L25.5745 24.8581C27.3623 25.2374 28.6897 25.8333 29.5565 26.646C30.4415 27.4587 30.8839 28.5422 30.8839 29.8967C30.8839 30.7635 30.7033 31.5491 30.3421 32.2534C29.999 32.9577 29.4933 33.5627 28.8251 34.0684C28.175 34.574 27.3894 34.9623 26.4684 35.2332C25.5474 35.5041 24.509 35.6395 23.3532 35.6395Z" fill="#F6905C"/>
<path d="M37.8962 35.6395C36.939 35.6395 36.0812 35.4589 35.3227 35.0978C34.5823 34.7185 33.9953 34.2129 33.5619 33.5808C33.1465 32.9487 32.9389 32.2354 32.9389 31.4407C32.9389 30.4655 33.1917 29.698 33.6974 29.1382C34.203 28.5603 35.0247 28.1449 36.1625 27.8921C37.3002 27.6392 38.8262 27.5128 40.7405 27.5128H42.095V29.4632H40.7676C39.6479 29.4632 38.754 29.5174 38.0858 29.6258C37.4176 29.7341 36.939 29.9238 36.6501 30.1946C36.3792 30.4475 36.2437 30.8087 36.2437 31.2782C36.2437 31.8742 36.4514 32.3618 36.8668 32.741C37.2821 33.1203 37.86 33.3099 38.6005 33.3099C39.1964 33.3099 39.7201 33.1744 40.1716 32.9035C40.6412 32.6146 41.0114 32.2263 41.2823 31.7387C41.5532 31.2511 41.6886 30.6913 41.6886 30.0592V26.944C41.6886 26.041 41.49 25.3909 41.0927 24.9936C40.6954 24.5962 40.0272 24.3976 39.0881 24.3976C38.5643 24.3976 37.9955 24.4608 37.3815 24.5872C36.7855 24.7136 36.1534 24.9303 35.4852 25.2374C35.1421 25.3999 34.8351 25.445 34.5642 25.3728C34.3114 25.3006 34.1127 25.1561 33.9682 24.9394C33.8238 24.7046 33.7515 24.4518 33.7515 24.1809C33.7515 23.91 33.8238 23.6481 33.9682 23.3953C34.1127 23.1244 34.3565 22.9258 34.6996 22.7993C35.5304 22.4562 36.325 22.2124 37.0835 22.0679C37.86 21.9235 38.5644 21.8512 39.1964 21.8512C40.4967 21.8512 41.5622 22.0499 42.3929 22.4472C43.2417 22.8445 43.8738 23.4495 44.2892 24.2622C44.7045 25.0568 44.9122 26.0861 44.9122 27.3503V33.8517C44.9122 34.4115 44.7768 34.8449 44.5059 35.1519C44.235 35.4409 43.8467 35.5854 43.341 35.5854C42.8354 35.5854 42.4381 35.4409 42.1491 35.1519C41.8782 34.8449 41.7428 34.4115 41.7428 33.8517V32.5514H41.9595C41.8331 33.1835 41.5803 33.7343 41.201 34.2038C40.8398 34.6553 40.3793 35.0075 39.8195 35.2603C39.2596 35.5131 38.6185 35.6395 37.8962 35.6395Z" fill="#F6905C"/>
<path d="M53.1439 35.6395C52.0423 35.6395 51.1303 35.4409 50.4079 35.0436C49.6855 34.6282 49.1437 34.0142 48.7826 33.2015C48.4394 32.3889 48.2679 31.3775 48.2679 30.1676V23.612C48.2679 23.0341 48.4123 22.6097 48.7013 22.3388C48.9902 22.0499 49.4056 21.9054 49.9474 21.9054C50.4892 21.9054 50.9045 22.0499 51.1935 22.3388C51.5005 22.6097 51.654 23.0341 51.654 23.612V30.2217C51.654 31.1608 51.8436 31.8561 52.2229 32.3076C52.6021 32.7591 53.2071 32.9848 54.0378 32.9848C54.9408 32.9848 55.6812 32.6778 56.2591 32.0638C56.837 31.4317 57.126 30.601 57.126 29.5716V23.612C57.126 23.0341 57.2704 22.6097 57.5594 22.3388C57.8483 22.0499 58.2637 21.9054 58.8055 21.9054C59.3473 21.9054 59.7626 22.0499 60.0516 22.3388C60.3586 22.6097 60.5121 23.0341 60.5121 23.612V33.8517C60.5121 35.0075 59.9613 35.5854 58.8597 35.5854C58.3359 35.5854 57.9296 35.4409 57.6407 35.1519C57.3517 34.8449 57.2072 34.4115 57.2072 33.8517V31.7929L57.5865 32.6056C57.2072 33.5808 56.6293 34.3302 55.8528 34.854C55.0943 35.3777 54.1913 35.6395 53.1439 35.6395Z" fill="#F6905C"/>
<path d="M69.1292 35.6395C67.9734 35.6395 66.953 35.3596 66.0681 34.7998C65.2012 34.2399 64.524 33.4453 64.0364 32.4159C63.5488 31.3685 63.305 30.1405 63.305 28.7318C63.305 27.3052 63.5488 26.0861 64.0364 25.0748C64.524 24.0454 65.2012 23.2508 66.0681 22.691C66.953 22.1311 67.9734 21.8512 69.1292 21.8512C70.2308 21.8512 71.1879 22.1221 72.0006 22.6639C72.8313 23.2057 73.3912 23.919 73.6801 24.8039H73.3821V17.7608C73.3821 17.2009 73.5266 16.7766 73.8156 16.4876C74.1045 16.1987 74.5199 16.0542 75.0616 16.0542C75.6034 16.0542 76.0188 16.1987 76.3077 16.4876C76.6147 16.7766 76.7683 17.2009 76.7683 17.7608V33.8517C76.7683 34.4115 76.6238 34.8449 76.3348 35.1519C76.0459 35.4409 75.6305 35.5854 75.0887 35.5854C74.547 35.5854 74.1316 35.4409 73.8426 35.1519C73.5537 34.8449 73.4092 34.4115 73.4092 33.8517V31.7387L73.7072 32.5514C73.4363 33.4905 72.8855 34.2399 72.0548 34.7998C71.224 35.3596 70.2488 35.6395 69.1292 35.6395ZM70.0773 33.0661C70.7455 33.0661 71.3324 32.9035 71.8381 32.5785C72.3437 32.2534 72.732 31.7748 73.0029 31.1428C73.2918 30.4926 73.4363 29.689 73.4363 28.7318C73.4363 27.2871 73.1293 26.2126 72.5153 25.5082C71.9013 24.7859 71.0886 24.4247 70.0773 24.4247C69.4091 24.4247 68.8221 24.5872 68.3165 24.9123C67.8108 25.2193 67.4135 25.6979 67.1246 26.348C66.8537 26.9801 66.7182 27.7747 66.7182 28.7318C66.7182 30.1585 67.0252 31.2421 67.6393 31.9825C68.2533 32.7049 69.0659 33.0661 70.0773 33.0661Z" fill="#F6905C"/>
<path d="M84.6406 35.6395C83.6834 35.6395 82.8256 35.4589 82.0671 35.0978C81.3267 34.7185 80.7398 34.2129 80.3063 33.5808C79.891 32.9487 79.6833 32.2354 79.6833 31.4407C79.6833 30.4655 79.9361 29.698 80.4418 29.1382C80.9474 28.5603 81.7691 28.1449 82.9069 27.8921C84.0446 27.6392 85.5706 27.5128 87.4849 27.5128H88.8394V29.4632H87.512C86.3923 29.4632 85.4984 29.5174 84.8302 29.6258C84.162 29.7341 83.6834 29.9238 83.3945 30.1946C83.1236 30.4475 82.9881 30.8087 82.9881 31.2782C82.9881 31.8742 83.1958 32.3618 83.6112 32.741C84.0266 33.1203 84.6045 33.3099 85.3449 33.3099C85.9408 33.3099 86.4646 33.1744 86.9161 32.9035C87.3856 32.6146 87.7558 32.2263 88.0267 31.7387C88.2976 31.2511 88.433 30.6913 88.433 30.0592V26.944C88.433 26.041 88.2344 25.3909 87.8371 24.9936C87.4398 24.5962 86.7716 24.3976 85.8325 24.3976C85.3088 24.3976 84.7399 24.4608 84.1259 24.5872C83.5299 24.7136 82.8979 24.9303 82.2297 25.2374C81.8865 25.3999 81.5795 25.445 81.3086 25.3728C81.0558 25.3006 80.8571 25.1561 80.7127 24.9394C80.5682 24.7046 80.496 24.4518 80.496 24.1809C80.496 23.91 80.5682 23.6481 80.7127 23.3953C80.8571 23.1244 81.1009 22.9258 81.4441 22.7993C82.2748 22.4562 83.0694 22.2124 83.8279 22.0679C84.6045 21.9235 85.3088 21.8512 85.9408 21.8512C87.2411 21.8512 88.3066 22.0499 89.1374 22.4472C89.9861 22.8445 90.6182 23.4495 91.0336 24.2622C91.449 25.0568 91.6566 26.0861 91.6566 27.3503V33.8517C91.6566 34.4115 91.5212 34.8449 91.2503 35.1519C90.9794 35.4409 90.5911 35.5854 90.0855 35.5854C89.5798 35.5854 89.1825 35.4409 88.8935 35.1519C88.6227 34.8449 88.4872 34.4115 88.4872 33.8517V32.5514H88.7039C88.5775 33.1835 88.3247 33.7343 87.9454 34.2038C87.5842 34.6553 87.1237 35.0075 86.5639 35.2603C86.0041 35.5131 85.3629 35.6395 84.6406 35.6395Z" fill="#F6905C"/>
</g>
<path d="M23.3532 35.6395C22.5586 35.6395 21.7639 35.5763 20.9693 35.4499C20.1747 35.3416 19.4253 35.17 18.7209 34.9352C18.0166 34.6824 17.3845 34.3754 16.8247 34.0142C16.4996 33.7975 16.2739 33.5356 16.1475 33.2286C16.0211 32.9216 15.9759 32.6236 16.012 32.3347C16.0662 32.0277 16.1836 31.7658 16.3642 31.5491C16.5628 31.3143 16.8067 31.1699 17.0956 31.1157C17.3845 31.0615 17.7006 31.1428 18.0437 31.3595C18.8383 31.829 19.6781 32.1721 20.563 32.3889C21.4479 32.6056 22.378 32.7139 23.3532 32.7139C24.7799 32.7139 25.8183 32.4792 26.4684 32.0096C27.1185 31.522 27.4436 30.899 27.4436 30.1405C27.4436 29.5084 27.2088 29.0118 26.7393 28.6506C26.2878 28.2894 25.5022 27.9914 24.3825 27.7566L21.4028 27.1336C19.6871 26.7724 18.4049 26.1674 17.5561 25.3186C16.7254 24.4518 16.31 23.314 16.31 21.9054C16.31 21.0205 16.4906 20.2169 16.8518 19.4945C17.213 18.7721 17.7186 18.1491 18.3688 17.6253C19.037 17.1016 19.8226 16.7043 20.7255 16.4334C21.6466 16.1445 22.6579 16 23.7595 16C24.8431 16 25.8724 16.1354 26.8476 16.4063C27.8229 16.6772 28.6987 17.0745 29.4753 17.5983C29.7642 17.7969 29.9539 18.0407 30.0442 18.3297C30.1525 18.6186 30.1796 18.9076 30.1254 19.1965C30.0712 19.4674 29.9448 19.7022 29.7462 19.9008C29.5475 20.0995 29.2947 20.2169 28.9877 20.253C28.6987 20.2891 28.3646 20.1988 27.9854 19.9821C27.3172 19.6028 26.64 19.3319 25.9537 19.1694C25.2675 19.0069 24.527 18.9256 23.7324 18.9256C22.9017 18.9256 22.1883 19.043 21.5924 19.2778C20.9964 19.5125 20.5359 19.8466 20.2108 20.2801C19.9038 20.6954 19.7503 21.1921 19.7503 21.77C19.7503 22.4201 19.967 22.9438 20.4005 23.3411C20.8339 23.7204 21.5743 24.0184 22.6218 24.2351L25.5745 24.8581C27.3623 25.2374 28.6897 25.8333 29.5565 26.646C30.4415 27.4587 30.8839 28.5422 30.8839 29.8967C30.8839 30.7635 30.7033 31.5491 30.3421 32.2534C29.999 32.9577 29.4933 33.5627 28.8251 34.0684C28.175 34.574 27.3894 34.9623 26.4684 35.2332C25.5474 35.5041 24.509 35.6395 23.3532 35.6395Z" stroke="black" stroke-opacity="0.08" stroke-width="2" mask="url(#path-1-outside-1_766_26497)"/>
<path d="M37.8962 35.6395C36.939 35.6395 36.0812 35.4589 35.3227 35.0978C34.5823 34.7185 33.9953 34.2129 33.5619 33.5808C33.1465 32.9487 32.9389 32.2354 32.9389 31.4407C32.9389 30.4655 33.1917 29.698 33.6974 29.1382C34.203 28.5603 35.0247 28.1449 36.1625 27.8921C37.3002 27.6392 38.8262 27.5128 40.7405 27.5128H42.095V29.4632H40.7676C39.6479 29.4632 38.754 29.5174 38.0858 29.6258C37.4176 29.7341 36.939 29.9238 36.6501 30.1946C36.3792 30.4475 36.2437 30.8087 36.2437 31.2782C36.2437 31.8742 36.4514 32.3618 36.8668 32.741C37.2821 33.1203 37.86 33.3099 38.6005 33.3099C39.1964 33.3099 39.7201 33.1744 40.1716 32.9035C40.6412 32.6146 41.0114 32.2263 41.2823 31.7387C41.5532 31.2511 41.6886 30.6913 41.6886 30.0592V26.944C41.6886 26.041 41.49 25.3909 41.0927 24.9936C40.6954 24.5962 40.0272 24.3976 39.0881 24.3976C38.5643 24.3976 37.9955 24.4608 37.3815 24.5872C36.7855 24.7136 36.1534 24.9303 35.4852 25.2374C35.1421 25.3999 34.8351 25.445 34.5642 25.3728C34.3114 25.3006 34.1127 25.1561 33.9682 24.9394C33.8238 24.7046 33.7515 24.4518 33.7515 24.1809C33.7515 23.91 33.8238 23.6481 33.9682 23.3953C34.1127 23.1244 34.3565 22.9258 34.6996 22.7993C35.5304 22.4562 36.325 22.2124 37.0835 22.0679C37.86 21.9235 38.5644 21.8512 39.1964 21.8512C40.4967 21.8512 41.5622 22.0499 42.3929 22.4472C43.2417 22.8445 43.8738 23.4495 44.2892 24.2622C44.7045 25.0568 44.9122 26.0861 44.9122 27.3503V33.8517C44.9122 34.4115 44.7768 34.8449 44.5059 35.1519C44.235 35.4409 43.8467 35.5854 43.341 35.5854C42.8354 35.5854 42.4381 35.4409 42.1491 35.1519C41.8782 34.8449 41.7428 34.4115 41.7428 33.8517V32.5514H41.9595C41.8331 33.1835 41.5803 33.7343 41.201 34.2038C40.8398 34.6553 40.3793 35.0075 39.8195 35.2603C39.2596 35.5131 38.6185 35.6395 37.8962 35.6395Z" stroke="black" stroke-opacity="0.08" stroke-width="2" mask="url(#path-1-outside-1_766_26497)"/>
<path d="M53.1439 35.6395C52.0423 35.6395 51.1303 35.4409 50.4079 35.0436C49.6855 34.6282 49.1437 34.0142 48.7826 33.2015C48.4394 32.3889 48.2679 31.3775 48.2679 30.1676V23.612C48.2679 23.0341 48.4123 22.6097 48.7013 22.3388C48.9902 22.0499 49.4056 21.9054 49.9474 21.9054C50.4892 21.9054 50.9045 22.0499 51.1935 22.3388C51.5005 22.6097 51.654 23.0341 51.654 23.612V30.2217C51.654 31.1608 51.8436 31.8561 52.2229 32.3076C52.6021 32.7591 53.2071 32.9848 54.0378 32.9848C54.9408 32.9848 55.6812 32.6778 56.2591 32.0638C56.837 31.4317 57.126 30.601 57.126 29.5716V23.612C57.126 23.0341 57.2704 22.6097 57.5594 22.3388C57.8483 22.0499 58.2637 21.9054 58.8055 21.9054C59.3473 21.9054 59.7626 22.0499 60.0516 22.3388C60.3586 22.6097 60.5121 23.0341 60.5121 23.612V33.8517C60.5121 35.0075 59.9613 35.5854 58.8597 35.5854C58.3359 35.5854 57.9296 35.4409 57.6407 35.1519C57.3517 34.8449 57.2072 34.4115 57.2072 33.8517V31.7929L57.5865 32.6056C57.2072 33.5808 56.6293 34.3302 55.8528 34.854C55.0943 35.3777 54.1913 35.6395 53.1439 35.6395Z" stroke="black" stroke-opacity="0.08" stroke-width="2" mask="url(#path-1-outside-1_766_26497)"/>
<path d="M69.1292 35.6395C67.9734 35.6395 66.953 35.3596 66.0681 34.7998C65.2012 34.2399 64.524 33.4453 64.0364 32.4159C63.5488 31.3685 63.305 30.1405 63.305 28.7318C63.305 27.3052 63.5488 26.0861 64.0364 25.0748C64.524 24.0454 65.2012 23.2508 66.0681 22.691C66.953 22.1311 67.9734 21.8512 69.1292 21.8512C70.2308 21.8512 71.1879 22.1221 72.0006 22.6639C72.8313 23.2057 73.3912 23.919 73.6801 24.8039H73.3821V17.7608C73.3821 17.2009 73.5266 16.7766 73.8156 16.4876C74.1045 16.1987 74.5199 16.0542 75.0616 16.0542C75.6034 16.0542 76.0188 16.1987 76.3077 16.4876C76.6147 16.7766 76.7683 17.2009 76.7683 17.7608V33.8517C76.7683 34.4115 76.6238 34.8449 76.3348 35.1519C76.0459 35.4409 75.6305 35.5854 75.0887 35.5854C74.547 35.5854 74.1316 35.4409 73.8426 35.1519C73.5537 34.8449 73.4092 34.4115 73.4092 33.8517V31.7387L73.7072 32.5514C73.4363 33.4905 72.8855 34.2399 72.0548 34.7998C71.224 35.3596 70.2488 35.6395 69.1292 35.6395ZM70.0773 33.0661C70.7455 33.0661 71.3324 32.9035 71.8381 32.5785C72.3437 32.2534 72.732 31.7748 73.0029 31.1428C73.2918 30.4926 73.4363 29.689 73.4363 28.7318C73.4363 27.2871 73.1293 26.2126 72.5153 25.5082C71.9013 24.7859 71.0886 24.4247 70.0773 24.4247C69.4091 24.4247 68.8221 24.5872 68.3165 24.9123C67.8108 25.2193 67.4135 25.6979 67.1246 26.348C66.8537 26.9801 66.7182 27.7747 66.7182 28.7318C66.7182 30.1585 67.0252 31.2421 67.6393 31.9825C68.2533 32.7049 69.0659 33.0661 70.0773 33.0661Z" stroke="black" stroke-opacity="0.08" stroke-width="2" mask="url(#path-1-outside-1_766_26497)"/>
<path d="M84.6406 35.6395C83.6834 35.6395 82.8256 35.4589 82.0671 35.0978C81.3267 34.7185 80.7398 34.2129 80.3063 33.5808C79.891 32.9487 79.6833 32.2354 79.6833 31.4407C79.6833 30.4655 79.9361 29.698 80.4418 29.1382C80.9474 28.5603 81.7691 28.1449 82.9069 27.8921C84.0446 27.6392 85.5706 27.5128 87.4849 27.5128H88.8394V29.4632H87.512C86.3923 29.4632 85.4984 29.5174 84.8302 29.6258C84.162 29.7341 83.6834 29.9238 83.3945 30.1946C83.1236 30.4475 82.9881 30.8087 82.9881 31.2782C82.9881 31.8742 83.1958 32.3618 83.6112 32.741C84.0266 33.1203 84.6045 33.3099 85.3449 33.3099C85.9408 33.3099 86.4646 33.1744 86.9161 32.9035C87.3856 32.6146 87.7558 32.2263 88.0267 31.7387C88.2976 31.2511 88.433 30.6913 88.433 30.0592V26.944C88.433 26.041 88.2344 25.3909 87.8371 24.9936C87.4398 24.5962 86.7716 24.3976 85.8325 24.3976C85.3088 24.3976 84.7399 24.4608 84.1259 24.5872C83.5299 24.7136 82.8979 24.9303 82.2297 25.2374C81.8865 25.3999 81.5795 25.445 81.3086 25.3728C81.0558 25.3006 80.8571 25.1561 80.7127 24.9394C80.5682 24.7046 80.496 24.4518 80.496 24.1809C80.496 23.91 80.5682 23.6481 80.7127 23.3953C80.8571 23.1244 81.1009 22.9258 81.4441 22.7993C82.2748 22.4562 83.0694 22.2124 83.8279 22.0679C84.6045 21.9235 85.3088 21.8512 85.9408 21.8512C87.2411 21.8512 88.3066 22.0499 89.1374 22.4472C89.9861 22.8445 90.6182 23.4495 91.0336 24.2622C91.449 25.0568 91.6566 26.0861 91.6566 27.3503V33.8517C91.6566 34.4115 91.5212 34.8449 91.2503 35.1519C90.9794 35.4409 90.5911 35.5854 90.0855 35.5854C89.5798 35.5854 89.1825 35.4409 88.8935 35.1519C88.6227 34.8449 88.4872 34.4115 88.4872 33.8517V32.5514H88.7039C88.5775 33.1835 88.3247 33.7343 87.9454 34.2038C87.5842 34.6553 87.1237 35.0075 86.5639 35.2603C86.0041 35.5131 85.3629 35.6395 84.6406 35.6395Z" stroke="black" stroke-opacity="0.08" stroke-width="2" mask="url(#path-1-outside-1_766_26497)"/>
<mask id="path-2-outside-2_766_26497" maskUnits="userSpaceOnUse" x="94.6566" y="15.0271" width="64" height="22" fill="black">
<rect fill="white" x="94.6566" y="15.0271" width="64" height="22"/>
<path d="M97.4987 35.3416C96.9027 35.3416 96.4422 35.1881 96.1171 34.8811C95.8101 34.556 95.6566 34.0955 95.6566 33.4995V18.0859C95.6566 17.4899 95.8101 17.0384 96.1171 16.7314C96.4422 16.4063 96.9027 16.2438 97.4987 16.2438H104C105.336 16.2438 106.474 16.4425 107.413 16.8398C108.352 17.2371 109.066 17.8059 109.553 18.5464C110.059 19.2868 110.312 20.1717 110.312 21.2011C110.312 22.3569 109.978 23.3321 109.309 24.1267C108.641 24.9213 107.729 25.4541 106.573 25.725V25.3186C107.91 25.5173 108.948 26.0229 109.689 26.8356C110.429 27.6483 110.799 28.7048 110.799 30.005C110.799 31.7026 110.221 33.0209 109.066 33.96C107.928 34.8811 106.339 35.3416 104.298 35.3416H97.4987ZM98.9886 32.7139H103.865C105.093 32.7139 105.996 32.4792 106.573 32.0096C107.151 31.522 107.44 30.7996 107.44 29.8425C107.44 28.8673 107.151 28.1449 106.573 27.6754C105.996 27.2058 105.093 26.9711 103.865 26.9711H98.9886V32.7139ZM98.9886 24.3434H103.404C104.596 24.3434 105.481 24.1177 106.059 23.6662C106.655 23.1967 106.953 22.5104 106.953 21.6074C106.953 20.7045 106.655 20.0272 106.059 19.5758C105.481 19.1062 104.596 18.8714 103.404 18.8714H98.9886V24.3434Z"/>
<path d="M120.023 35.6125C118.65 35.6125 117.458 35.3325 116.447 34.7727C115.435 34.2129 114.65 33.4182 114.09 32.3889C113.53 31.3414 113.25 30.1134 113.25 28.7048C113.25 27.6393 113.404 26.6911 113.711 25.8604C114.036 25.0116 114.496 24.2893 115.092 23.6933C115.688 23.0793 116.402 22.6188 117.232 22.3118C118.063 21.9867 118.993 21.8242 120.023 21.8242C121.395 21.8242 122.587 22.1041 123.598 22.6639C124.61 23.2237 125.395 24.0184 125.955 25.0477C126.515 26.0771 126.795 27.2961 126.795 28.7048C126.795 29.7703 126.632 30.7274 126.307 31.5762C126 32.425 125.549 33.1564 124.953 33.7704C124.357 34.3664 123.643 34.8269 122.813 35.1519C121.982 35.459 121.052 35.6125 120.023 35.6125ZM120.023 33.039C120.691 33.039 121.278 32.8765 121.783 32.5514C122.289 32.2263 122.677 31.7478 122.948 31.1157C123.237 30.4655 123.382 29.6619 123.382 28.7048C123.382 27.26 123.075 26.1855 122.461 25.4812C121.847 24.7588 121.034 24.3976 120.023 24.3976C119.354 24.3976 118.767 24.5601 118.262 24.8852C117.756 25.1922 117.359 25.6708 117.07 26.3209C116.799 26.953 116.664 27.7476 116.664 28.7048C116.664 30.1314 116.971 31.215 117.585 31.9554C118.199 32.6778 119.011 33.039 120.023 33.039Z"/>
<path d="M135.63 35.6125C134.258 35.6125 133.066 35.3325 132.055 34.7727C131.043 34.2129 130.258 33.4182 129.698 32.3889C129.138 31.3414 128.858 30.1134 128.858 28.7048C128.858 27.6393 129.012 26.6911 129.319 25.8604C129.644 25.0116 130.104 24.2893 130.7 23.6933C131.296 23.0793 132.01 22.6188 132.84 22.3118C133.671 21.9867 134.601 21.8242 135.63 21.8242C137.003 21.8242 138.195 22.1041 139.206 22.6639C140.218 23.2237 141.003 24.0184 141.563 25.0477C142.123 26.0771 142.403 27.2961 142.403 28.7048C142.403 29.7703 142.24 30.7274 141.915 31.5762C141.608 32.425 141.157 33.1564 140.561 33.7704C139.965 34.3664 139.251 34.8269 138.421 35.1519C137.59 35.459 136.66 35.6125 135.63 35.6125ZM135.63 33.039C136.299 33.039 136.886 32.8765 137.391 32.5514C137.897 32.2263 138.285 31.7478 138.556 31.1157C138.845 30.4655 138.99 29.6619 138.99 28.7048C138.99 27.26 138.683 26.1855 138.068 25.4812C137.454 24.7588 136.642 24.3976 135.63 24.3976C134.962 24.3976 134.375 24.5601 133.87 24.8852C133.364 25.1922 132.967 25.6708 132.678 26.3209C132.407 26.953 132.271 27.7476 132.271 28.7048C132.271 30.1314 132.578 31.215 133.192 31.9554C133.806 32.6778 134.619 33.039 135.63 33.039Z"/>
<path d="M146.877 35.5583C146.335 35.5583 145.92 35.4138 145.631 35.1249C145.342 34.8179 145.198 34.3844 145.198 33.8246V17.7337C145.198 17.1739 145.342 16.7495 145.631 16.4605C145.92 16.1716 146.335 16.0271 146.877 16.0271C147.419 16.0271 147.834 16.1716 148.123 16.4605C148.43 16.7495 148.584 17.1739 148.584 17.7337V27.7296H148.638L153.108 23.0161C153.469 22.6549 153.785 22.375 154.056 22.1763C154.327 21.9777 154.697 21.8783 155.166 21.8783C155.636 21.8783 155.988 22.0047 156.223 22.2576C156.476 22.4923 156.602 22.7813 156.602 23.1244C156.602 23.4676 156.439 23.8107 156.114 24.1538L151.401 29.1382V27.7296L156.575 33.3099C156.9 33.653 157.044 34.0052 157.008 34.3664C156.99 34.7095 156.846 34.9984 156.575 35.2332C156.304 35.4499 155.961 35.5583 155.546 35.5583C155.04 35.5583 154.634 35.459 154.327 35.2603C154.038 35.0616 153.713 34.7637 153.351 34.3664L148.638 29.4362H148.584V33.8246C148.584 34.9804 148.015 35.5583 146.877 35.5583Z"/>
</mask>
<g filter="url(#filter1_i_766_26497)">
<path d="M97.4987 35.3416C96.9027 35.3416 96.4422 35.1881 96.1171 34.8811C95.8101 34.556 95.6566 34.0955 95.6566 33.4995V18.0859C95.6566 17.4899 95.8101 17.0384 96.1171 16.7314C96.4422 16.4063 96.9027 16.2438 97.4987 16.2438H104C105.336 16.2438 106.474 16.4425 107.413 16.8398C108.352 17.2371 109.066 17.8059 109.553 18.5464C110.059 19.2868 110.312 20.1717 110.312 21.2011C110.312 22.3569 109.978 23.3321 109.309 24.1267C108.641 24.9213 107.729 25.4541 106.573 25.725V25.3186C107.91 25.5173 108.948 26.0229 109.689 26.8356C110.429 27.6483 110.799 28.7048 110.799 30.005C110.799 31.7026 110.221 33.0209 109.066 33.96C107.928 34.8811 106.339 35.3416 104.298 35.3416H97.4987ZM98.9886 32.7139H103.865C105.093 32.7139 105.996 32.4792 106.573 32.0096C107.151 31.522 107.44 30.7996 107.44 29.8425C107.44 28.8673 107.151 28.1449 106.573 27.6754C105.996 27.2058 105.093 26.9711 103.865 26.9711H98.9886V32.7139ZM98.9886 24.3434H103.404C104.596 24.3434 105.481 24.1177 106.059 23.6662C106.655 23.1967 106.953 22.5104 106.953 21.6074C106.953 20.7045 106.655 20.0272 106.059 19.5758C105.481 19.1062 104.596 18.8714 103.404 18.8714H98.9886V24.3434Z" fill="#008B74"/>
<path d="M120.023 35.6125C118.65 35.6125 117.458 35.3325 116.447 34.7727C115.435 34.2129 114.65 33.4182 114.09 32.3889C113.53 31.3414 113.25 30.1134 113.25 28.7048C113.25 27.6393 113.404 26.6911 113.711 25.8604C114.036 25.0116 114.496 24.2893 115.092 23.6933C115.688 23.0793 116.402 22.6188 117.232 22.3118C118.063 21.9867 118.993 21.8242 120.023 21.8242C121.395 21.8242 122.587 22.1041 123.598 22.6639C124.61 23.2237 125.395 24.0184 125.955 25.0477C126.515 26.0771 126.795 27.2961 126.795 28.7048C126.795 29.7703 126.632 30.7274 126.307 31.5762C126 32.425 125.549 33.1564 124.953 33.7704C124.357 34.3664 123.643 34.8269 122.813 35.1519C121.982 35.459 121.052 35.6125 120.023 35.6125ZM120.023 33.039C120.691 33.039 121.278 32.8765 121.783 32.5514C122.289 32.2263 122.677 31.7478 122.948 31.1157C123.237 30.4655 123.382 29.6619 123.382 28.7048C123.382 27.26 123.075 26.1855 122.461 25.4812C121.847 24.7588 121.034 24.3976 120.023 24.3976C119.354 24.3976 118.767 24.5601 118.262 24.8852C117.756 25.1922 117.359 25.6708 117.07 26.3209C116.799 26.953 116.664 27.7476 116.664 28.7048C116.664 30.1314 116.971 31.215 117.585 31.9554C118.199 32.6778 119.011 33.039 120.023 33.039Z" fill="#008B74"/>
<path d="M135.63 35.6125C134.258 35.6125 133.066 35.3325 132.055 34.7727C131.043 34.2129 130.258 33.4182 129.698 32.3889C129.138 31.3414 128.858 30.1134 128.858 28.7048C128.858 27.6393 129.012 26.6911 129.319 25.8604C129.644 25.0116 130.104 24.2893 130.7 23.6933C131.296 23.0793 132.01 22.6188 132.84 22.3118C133.671 21.9867 134.601 21.8242 135.63 21.8242C137.003 21.8242 138.195 22.1041 139.206 22.6639C140.218 23.2237 141.003 24.0184 141.563 25.0477C142.123 26.0771 142.403 27.2961 142.403 28.7048C142.403 29.7703 142.24 30.7274 141.915 31.5762C141.608 32.425 141.157 33.1564 140.561 33.7704C139.965 34.3664 139.251 34.8269 138.421 35.1519C137.59 35.459 136.66 35.6125 135.63 35.6125ZM135.63 33.039C136.299 33.039 136.886 32.8765 137.391 32.5514C137.897 32.2263 138.285 31.7478 138.556 31.1157C138.845 30.4655 138.99 29.6619 138.99 28.7048C138.99 27.26 138.683 26.1855 138.068 25.4812C137.454 24.7588 136.642 24.3976 135.63 24.3976C134.962 24.3976 134.375 24.5601 133.87 24.8852C133.364 25.1922 132.967 25.6708 132.678 26.3209C132.407 26.953 132.271 27.7476 132.271 28.7048C132.271 30.1314 132.578 31.215 133.192 31.9554C133.806 32.6778 134.619 33.039 135.63 33.039Z" fill="#008B74"/>
<path d="M146.877 35.5583C146.335 35.5583 145.92 35.4138 145.631 35.1249C145.342 34.8179 145.198 34.3844 145.198 33.8246V17.7337C145.198 17.1739 145.342 16.7495 145.631 16.4605C145.92 16.1716 146.335 16.0271 146.877 16.0271C147.419 16.0271 147.834 16.1716 148.123 16.4605C148.43 16.7495 148.584 17.1739 148.584 17.7337V27.7296H148.638L153.108 23.0161C153.469 22.6549 153.785 22.375 154.056 22.1763C154.327 21.9777 154.697 21.8783 155.166 21.8783C155.636 21.8783 155.988 22.0047 156.223 22.2576C156.476 22.4923 156.602 22.7813 156.602 23.1244C156.602 23.4676 156.439 23.8107 156.114 24.1538L151.401 29.1382V27.7296L156.575 33.3099C156.9 33.653 157.044 34.0052 157.008 34.3664C156.99 34.7095 156.846 34.9984 156.575 35.2332C156.304 35.4499 155.961 35.5583 155.546 35.5583C155.04 35.5583 154.634 35.459 154.327 35.2603C154.038 35.0616 153.713 34.7637 153.351 34.3664L148.638 29.4362H148.584V33.8246C148.584 34.9804 148.015 35.5583 146.877 35.5583Z" fill="#008B74"/>
</g>
<path d="M97.4987 35.3416C96.9027 35.3416 96.4422 35.1881 96.1171 34.8811C95.8101 34.556 95.6566 34.0955 95.6566 33.4995V18.0859C95.6566 17.4899 95.8101 17.0384 96.1171 16.7314C96.4422 16.4063 96.9027 16.2438 97.4987 16.2438H104C105.336 16.2438 106.474 16.4425 107.413 16.8398C108.352 17.2371 109.066 17.8059 109.553 18.5464C110.059 19.2868 110.312 20.1717 110.312 21.2011C110.312 22.3569 109.978 23.3321 109.309 24.1267C108.641 24.9213 107.729 25.4541 106.573 25.725V25.3186C107.91 25.5173 108.948 26.0229 109.689 26.8356C110.429 27.6483 110.799 28.7048 110.799 30.005C110.799 31.7026 110.221 33.0209 109.066 33.96C107.928 34.8811 106.339 35.3416 104.298 35.3416H97.4987ZM98.9886 32.7139H103.865C105.093 32.7139 105.996 32.4792 106.573 32.0096C107.151 31.522 107.44 30.7996 107.44 29.8425C107.44 28.8673 107.151 28.1449 106.573 27.6754C105.996 27.2058 105.093 26.9711 103.865 26.9711H98.9886V32.7139ZM98.9886 24.3434H103.404C104.596 24.3434 105.481 24.1177 106.059 23.6662C106.655 23.1967 106.953 22.5104 106.953 21.6074C106.953 20.7045 106.655 20.0272 106.059 19.5758C105.481 19.1062 104.596 18.8714 103.404 18.8714H98.9886V24.3434Z" stroke="black" stroke-opacity="0.08" stroke-width="2" mask="url(#path-2-outside-2_766_26497)"/>
<path d="M120.023 35.6125C118.65 35.6125 117.458 35.3325 116.447 34.7727C115.435 34.2129 114.65 33.4182 114.09 32.3889C113.53 31.3414 113.25 30.1134 113.25 28.7048C113.25 27.6393 113.404 26.6911 113.711 25.8604C114.036 25.0116 114.496 24.2893 115.092 23.6933C115.688 23.0793 116.402 22.6188 117.232 22.3118C118.063 21.9867 118.993 21.8242 120.023 21.8242C121.395 21.8242 122.587 22.1041 123.598 22.6639C124.61 23.2237 125.395 24.0184 125.955 25.0477C126.515 26.0771 126.795 27.2961 126.795 28.7048C126.795 29.7703 126.632 30.7274 126.307 31.5762C126 32.425 125.549 33.1564 124.953 33.7704C124.357 34.3664 123.643 34.8269 122.813 35.1519C121.982 35.459 121.052 35.6125 120.023 35.6125ZM120.023 33.039C120.691 33.039 121.278 32.8765 121.783 32.5514C122.289 32.2263 122.677 31.7478 122.948 31.1157C123.237 30.4655 123.382 29.6619 123.382 28.7048C123.382 27.26 123.075 26.1855 122.461 25.4812C121.847 24.7588 121.034 24.3976 120.023 24.3976C119.354 24.3976 118.767 24.5601 118.262 24.8852C117.756 25.1922 117.359 25.6708 117.07 26.3209C116.799 26.953 116.664 27.7476 116.664 28.7048C116.664 30.1314 116.971 31.215 117.585 31.9554C118.199 32.6778 119.011 33.039 120.023 33.039Z" stroke="black" stroke-opacity="0.08" stroke-width="2" mask="url(#path-2-outside-2_766_26497)"/>
<path d="M135.63 35.6125C134.258 35.6125 133.066 35.3325 132.055 34.7727C131.043 34.2129 130.258 33.4182 129.698 32.3889C129.138 31.3414 128.858 30.1134 128.858 28.7048C128.858 27.6393 129.012 26.6911 129.319 25.8604C129.644 25.0116 130.104 24.2893 130.7 23.6933C131.296 23.0793 132.01 22.6188 132.84 22.3118C133.671 21.9867 134.601 21.8242 135.63 21.8242C137.003 21.8242 138.195 22.1041 139.206 22.6639C140.218 23.2237 141.003 24.0184 141.563 25.0477C142.123 26.0771 142.403 27.2961 142.403 28.7048C142.403 29.7703 142.24 30.7274 141.915 31.5762C141.608 32.425 141.157 33.1564 140.561 33.7704C139.965 34.3664 139.251 34.8269 138.421 35.1519C137.59 35.459 136.66 35.6125 135.63 35.6125ZM135.63 33.039C136.299 33.039 136.886 32.8765 137.391 32.5514C137.897 32.2263 138.285 31.7478 138.556 31.1157C138.845 30.4655 138.99 29.6619 138.99 28.7048C138.99 27.26 138.683 26.1855 138.068 25.4812C137.454 24.7588 136.642 24.3976 135.63 24.3976C134.962 24.3976 134.375 24.5601 133.87 24.8852C133.364 25.1922 132.967 25.6708 132.678 26.3209C132.407 26.953 132.271 27.7476 132.271 28.7048C132.271 30.1314 132.578 31.215 133.192 31.9554C133.806 32.6778 134.619 33.039 135.63 33.039Z" stroke="black" stroke-opacity="0.08" stroke-width="2" mask="url(#path-2-outside-2_766_26497)"/>
<path d="M146.877 35.5583C146.335 35.5583 145.92 35.4138 145.631 35.1249C145.342 34.8179 145.198 34.3844 145.198 33.8246V17.7337C145.198 17.1739 145.342 16.7495 145.631 16.4605C145.92 16.1716 146.335 16.0271 146.877 16.0271C147.419 16.0271 147.834 16.1716 148.123 16.4605C148.43 16.7495 148.584 17.1739 148.584 17.7337V27.7296H148.638L153.108 23.0161C153.469 22.6549 153.785 22.375 154.056 22.1763C154.327 21.9777 154.697 21.8783 155.166 21.8783C155.636 21.8783 155.988 22.0047 156.223 22.2576C156.476 22.4923 156.602 22.7813 156.602 23.1244C156.602 23.4676 156.439 23.8107 156.114 24.1538L151.401 29.1382V27.7296L156.575 33.3099C156.9 33.653 157.044 34.0052 157.008 34.3664C156.99 34.7095 156.846 34.9984 156.575 35.2332C156.304 35.4499 155.961 35.5583 155.546 35.5583C155.04 35.5583 154.634 35.459 154.327 35.2603C154.038 35.0616 153.713 34.7637 153.351 34.3664L148.638 29.4362H148.584V33.8246C148.584 34.9804 148.015 35.5583 146.877 35.5583Z" stroke="black" stroke-opacity="0.08" stroke-width="2" mask="url(#path-2-outside-2_766_26497)"/>
<defs>
<filter id="filter0_i_766_26497" x="15" y="15" width="77.6566" height="24.0687" filterUnits="userSpaceOnUse" color-interpolation-filters="sRGB">
<feFlood flood-opacity="0" result="BackgroundImageFix"/>
<feBlend mode="normal" in="SourceGraphic" in2="BackgroundImageFix" result="shape"/>
<feColorMatrix in="SourceAlpha" type="matrix" values="0 0 0 0 0 0 0 0 0 0 0 0 0 0 0 0 0 0 127 0" result="hardAlpha"/>
<feOffset dy="2.42913"/>
<feGaussianBlur stdDeviation="1.21457"/>
<feComposite in2="hardAlpha" operator="arithmetic" k2="-1" k3="1"/>
<feColorMatrix type="matrix" values="0 0 0 0 0 0 0 0 0 0 0 0 0 0 0 0 0 0 0.16 0"/>
<feBlend mode="normal" in2="shape" result="effect1_innerShadow_766_26497"/>
</filter>
<filter id="filter1_i_766_26497" x="94.6566" y="15.0271" width="63.3573" height="24.0145" filterUnits="userSpaceOnUse" color-interpolation-filters="sRGB">
<feFlood flood-opacity="0" result="BackgroundImageFix"/>
<feBlend mode="normal" in="SourceGraphic" in2="BackgroundImageFix" result="shape"/>
<feColorMatrix in="SourceAlpha" type="matrix" values="0 0 0 0 0 0 0 0 0 0 0 0 0 0 0 0 0 0 127 0" result="hardAlpha"/>
<feOffset dy="2.42913"/>
<feGaussianBlur stdDeviation="1.21457"/>
<feComposite in2="hardAlpha" operator="arithmetic" k2="-1" k3="1"/>
<feColorMatrix type="matrix" values="0 0 0 0 0 0 0 0 0 0 0 0 0 0 0 0 0 0 0.16 0"/>
<feBlend mode="normal" in2="shape" result="effect1_innerShadow_766_26497"/>
</filter>
</defs>
</svg>
